/* XPM */
static char *b8e4b002b7a34492eb2f86104f07bff32Bx6HUOhaU7RDyZ8[] = {
/* columns rows colors chars-per-pixel */
"64 64 210 2 ",
"   c #ECEFF4",
".  c #1D0D1F",
"X  c #3B181B",
"o  c #0B0B23",
"O  c #070B25",
"+  c #161426",
"@  c #191525",
"#  c #2A1A23",
"$  c #2B2126",
"%  c #362326",
"&  c #372927",
"*  c #382927",
"=  c #352B2A",
"-  c #38302C",
";  c #46221E",
":  c #5D2115",
">  c #7B290F",
",  c #662B18",
"<  c #7A3F1F",
"1  c #433229",
"2  c #533C29",
"3  c #583F29",
"4  c #5E3724",
"5  c #452823",
"6  c #693924",
"7  c #673724",
"8  c #58412A",
"9  c #65482A",
"0  c #694B2A",
"q  c #674529",
"w  c #774324",
"e  c #7D562B",
"r  c #7D582C",
"t  c #685634",
"y  c #746238",
"u  c #3A4466",
"i  c #3B4669",
"p  c #8C2C06",
"a  c #8C2D0B",
"s  c #902E0B",
"d  c #823313",
"f  c #943811",
"g  c #9D3E12",
"h  c #923710",
"j  c #A03F12",
"k  c #9B4515",
"l  c #9F4D1A",
"z  c #924A1D",
"x  c #A14013",
"c  c #AD4815",
"v  c #A14F1B",
"b  c #AC4715",
"n  c #B44B16",
"m  c #B94E16",
"M  c #B04715",
"N  c #A4521B",
"B  c #A6581F",
"V  c #BC5117",
"C  c #BD5318",
"Z  c #9D4C25",
"A  c #865028",
"S  c #A45124",
"D  c #A15229",
"F  c #A95B27",
"G  c #A65C35",
"H  c #996B2D",
"J  c #9B612B",
"K  c #916B34",
"L  c #AE6424",
"P  c #A8692B",
"I  c #B06825",
"U  c #A6732E",
"Y  c #AA752E",
"T  c #B6732B",
"R  c #B9762D",
"E  c #B27A2F",
"W  c #BB7A2D",
"Q  c #B87534",
"!  c #AA6F32",
"~  c #C25619",
"^  c #C55919",
"/  c #CE5A1A",
"(  c #C65314",
")  c #D35E1A",
"_  c #DB5E16",
"`  c #D6611B",
"'  c #DB651D",
"]  c #DA651B",
"[  c #CD611C",
"{  c #E66A1E",
"}  c #EA6C1F",
"|  c #E4651A",
" . c #F26E1D",
".. c #D76622",
"X. c #D96B22",
"o. c #D56A22",
"O. c #DD7726",
"+. c #EA6E20",
"@. c #EC7522",
"#. c #EB7A24",
"$. c #E77825",
"%. c #F57422",
"&. c #FA7521",
"*. c #F77A22",
"=. c #F97D24",
"-. c #B77A4B",
";. c #B97D52",
":. c #AF6D44",
">. c #A58039",
",. c #C7812E",
"<. c #C28434",
"1. c #C68930",
"2. c #C88A34",
"3. c #CF993D",
"4. c #DD9531",
"5. c #DE9932",
"6. c #E5852B",
"7. c #F38326",
"8. c #F98326",
"9. c #F8842A",
"0. c #FB8C2A",
"q. c #F78C29",
"w. c #F4922C",
"e. c #FD922B",
"r. c #FC9C2E",
"t. c #F88838",
"y. c #F78236",
"u. c #E39C32",
"i. c #E69431",
"p. c #FA9C35",
"a. c #F79738",
"s. c #E79031",
"d. c #D5A43F",
"f. c #FFA22E",
"g. c #FDA632",
"h. c #FEAC33",
"j. c #FAAB3F",
"k. c #F5A634",
"l. c #FFB335",
"z. c #FFB835",
"x. c #FFB93B",
"c. c #A99548",
"v. c #AE9344",
"b. c #CF9C40",
"n. c #C28A4E",
"m. c #C9A145",
"M. c #D5A442",
"N. c #DAAB44",
"B. c #D7A647",
"V. c #DAB053",
"C. c #F9AE46",
"Z. c #E4BC4D",
"A. c #FBB545",
"S. c #FCBA45",
"D. c #FBA55F",
"F. c #FDA95F",
"G. c #F1AD51",
"H. c #C18C61",
"J. c #D4AA69",
"K. c #CFA578",
"L. c #D5AE79",
"P. c #FEB361",
"I. c #DEC353",
"U. c #E8C04F",
"Y. c #FEC548",
"T. c #EFCE56",
"R. c #E4CC58",
"E. c #FCCB53",
"W. c #FCC452",
"Q. c #F1D256",
"!. c #FED152",
"~. c #F2D559",
"^. c #FDDB5B",
"/. c #FBDC58",
"(. c #FDE35E",
"). c #FFE85E",
"_. c #FDC462",
"`. c #EFD162",
"'. c #FAD664",
"]. c #FDDA77",
"[. c #EBCF77",
"{. c #FEE661",
"}. c #FFEB62",
"|. c #FFE96D",
" X c #FEE66A",
".X c #FFF164",
"XX c #FFEB78",
"oX c #FFF073",
"OX c #D6B284",
"+X c #DBBA86",
"@X c #FDCA8D",
"#X c #FCCF86",
"$X c #FAD987",
"%X c #E6CD97",
"&X c #FFEE85",
"*X c #F8E381",
"=X c #FFF68C",
"-X c #FBEA9A",
";X c #EFDFAE",
":X c #F0DEA3",
">X c #FAE6AA",
",X c #FFF8A6",
"<X c #F2E4B4",
"1X c #FEE9B5",
"2X c #FEF8BC",
"3X c #FCF4BA",
"4X c #FFFDC5",
"5X c #FFFCCB",
"6X c #FFFFD2",
"7X c #FFFFDB",
/* pixels */
"                                                                                                                                ",
"                                                                                                                                ",
"                                                                                                                                ",
"                                                                                                                                ",
"                                                  a a a a a a a a p p p p p p                                                   ",
"                                                f f f f f f f f f f f f f f f f                                                 ",
"                                                l v v v v v v S S S D D D D D Z                                                 ",
"                                              B I T R R R R Q Q -.-.;.;.;.;.-.:.G                                               ",
"                                          a k L <.3.M.M.M.M.B.V.J.L.OXOXOXOXK.H.:.Z a                                           ",
"                                        a f v T 3.Z.T.Q.Q.T.`.[.$X:X<X<X<X;X%XK.-.D f p                                         ",
"                                        k v L <.N.Q.{.}.).{.|.&X,X2X5X6X6X4X<X+XH.P v k                                         ",
"                                      B L T <.M.U./.}..X.X}.oX=X,X4X6X7X7X6X3X%XJ.n.T L B                                       ",
"                                  f l I <.3.N.U.Q.(.}.}.}.}.oX=X,X4X6X7X7X6X2X-X[.V.3.<.I l f                                   ",
"                                a f v T 3.Z.Q./.(.{.}.).).}.|.&X,X2X5X5X5X5X3X-X*X`.Z.3.T v f a                                 ",
"                                a f v R M.T.{.}.}.}.{.).).{.|.XX-X>X1X1X1X1X>X-X&X XT.d.R v f a                                 ",
"                                a f N R M.~.}..X}.}.}.}.}.}. X].].#X@X@X@X@X#X$XXX|.~.N.W N f a                                 ",
"                                s f N R M.Q.}..X}.}.}.}.}.}.{.'._.P.D.D.D.F.P._.'.{.~.N.W N f s                                 ",
"                                a f v R M.T.{.}.}.}.{.}.}.{.^.W.C.a.t.y.y.t.a.C.E.^.T.M.R v f a                                 ",
"                                > d z Y m.T.{.}.}.}.{.).(.^.E.A.p.9.%. .} +.#.a.A.E.U.b.! z d >                                 ",
"                                : , w H b.R.}..X}.}.(.^.!.W.A.g.0.*. .| _ _ ] 6.a.C.N.2.J < , :                                 ",
"                                X ; 4 K v.R.}..X.X}.^.E.S.j.p.0.8.*.} ] ( ( ~ o.6.a.s.Q A 4 ; X                                 ",
"                                . # 1 y c.R.{..X.X{.^.W.j.w.9.=.=.%.} ) V b c ^ X.#.O.F w 5 # @                                 ",
"                                o @ - t c.I.^.).).(.!.S.p.9.&.&.&.%.+.) n x x m ` +.X.S 6 % @ o                                 ",
"                                O + = t v.Z.!././.!.Y.C.a.=.&.&.&.&.+.) M g g n ) { ..S 7 % + O                                 ",
"                                O + = t >.N.Y.Y.Y.Y.x.g.e.=.&.&.&.&.+.) n g g n ) { ..S 7 % + o                                 ",
"                                O @ = 0 Y 5.x.x.x.x.h.p.0.=.%.&.&.%.} / n x x m ` } ..S 6 % @ o                                 ",
"                                O @ & 0 U 5.h.l.l.h.g.r.0.=.%.%.%.+.' ^ c g x m ` } X.S 6 % @ o                                 ",
"                                o @ & 0 U 5.h.l.l.h.g.r.0.=.%.} | ` ^ n x f g m ` { ..S 6 % @ o                                 ",
"                                o @ & 0 U 5.h.l.l.h.g.r.0.*.+.' / V c x f f g m ` { ..S 6 % @ o                                 ",
"                                O @ & 0 U 5.h.l.l.h.g.r.0.=.+.` ~ b g f f f x V ' +.X.S 6 % @ o                                 ",
"                                O @ & 0 U 5.h.l.l.h.h.r.e.8.@.] ~ c x g g j c ^ { @.X.F 6 % @ o                                 ",
"                                O @ * 0 Y u.l.l.l.h.h.g.r.0.7.$.[ C n M M n ~ ] #.7.O.L q & @ o                                 ",
"                                O @ & 0 Y u.l.z.l.h.h.h.g.r.w.7.O.` / / / ) ] #.0.e.6.P q & @ o                                 ",
"                                O @ & 0 U 5.h.l.l.h.h.h.h.g.r.w.7.@.+.} } +.@.7.e.r.4.U 0 & @ o                                 ",
"                                O @ & 9 H 1.u.k.k.h.h.l.l.h.h.r.e.8.=.*.=.=.7.q.w.i.1.H 9 & @ O                                 ",
"                                  @ & 3 e H E 2.u.k.l.l.l.l.h.g.r.e.e.e.e.e.q.6.,.E H r 8 & @                                   ",
"                                      1 2 9 r U 2.k.l.z.z.l.l.h.h.f.f.f.f.f.w.,.P e 9 2 1                                       ",
"                                        $ * 2 r E u.h.l.l.h.h.h.h.g.g.h.h.g.i.E e 2 * $                                         ",
"                                        o @ * 9 H 1.5.u.u.5.5.5.5.5.5.u.u.5.1.H 9 * @ o                                         ",
"                                          o $ 2 e H U Y Y U U U U U U Y Y U H r 2 $ o                                           ",
"                                              1 3 9 0 0 0 0 0 0 0 0 0 0 0 0 9 8 1                                               ",
"                                                & & & & & & & & & & & & & & & &                                                 ",
"                                                @ @ @ @ @ @ @ @ @ @ @ @ @ @ @ @                                                 ",
"                                                  o o o o o o o o o o o o o o                                                   ",
"                                                                                                                                ",
"                                                                                                                                ",
"                                                                                                                                ",
"                                                                                                                                ",
"                                          u u u i i i i i i i i i i i i i i i i u u u                                           ",
"                                        u u u u u u u u u u u u u u u u u u u u u u u u                                         ",
"                                        u u u u u u u u u u u u u u u u u u u u u u u u                                         ",
"                                      u u u u u u u u u u u u u u u u u u u u u u u u u u                                       ",
"                                  u u u u u u u u u u u u u u u u u u u u u u u u u u u u u u                                   ",
"                                u u u u u u u u u u u u u u u u u u u u u u u u u u u u u u u u                                 ",
"                                u u u u u u u u u u u u u u u u u u u u u u u u u u u u u u u u                                 ",
"                                  u u u u u u u u u u u u u u u u u u u u u u u u u u u u u u                                   ",
"                                      u u u u u u u u u u u u u u u u u u u u u u u u u u                                       ",
"                                        u u u u u u u u u u u u u u u u u u u u u u u u                                         ",
"                                        u u u u u u u u u u u u u u u u u u u u u u u u                                         ",
"                                          u u u u u u u u u u u u u u u u u u u u u u                                           ",
"                                                                                                                                ",
"                                                                                                                                ",
"                                                                                                                                ",
"                                                                                                                                "
};
