/* XPM */
static char *_1c7bfd5f8e340a9abfb706b974f9d61KVL48zOsSCwm8MPx[] = {
/* columns rows colors chars-per-pixel */
"64 64 210 2 ",
"   c #ECEFF4",
".  c #1D0D1F",
"X  c #3B181B",
"o  c #0B0B23",
"O  c #070B25",
"+  c #161426",
"@  c #191525",
"#  c #2A1A23",
"$  c #2B2126",
"%  c #362326",
"&  c #372927",
"*  c #382927",
"=  c #352B2A",
"-  c #38302C",
";  c #46221E",
":  c #5D2115",
">  c #7B290F",
",  c #662B18",
"<  c #7A3F1F",
"1  c #433229",
"2  c #533C29",
"3  c #583F29",
"4  c #5E3724",
"5  c #452823",
"6  c #693924",
"7  c #673724",
"8  c #58412A",
"9  c #65482A",
"0  c #694B2A",
"q  c #674529",
"w  c #774324",
"e  c #7D562B",
"r  c #7D582C",
"t  c #685634",
"y  c #746238",
"u  c #3A4466",
"i  c #3B4669",
"p  c #8C2C06",
"a  c #8C2D0B",
"s  c #902E0B",
"d  c #823313",
"f  c #943811",
"g  c #9D3E12",
"h  c #923710",
"j  c #A03F12",
"k  c #9B4515",
"l  c #9F4D1A",
"z  c #924A1D",
"x  c #A14013",
"c  c #AD4815",
"v  c #A14F1B",
"b  c #AC4715",
"n  c #B44B16",
"m  c #B94E16",
"M  c #B04715",
"N  c #A4521B",
"B  c #A6581F",
"V  c #BC5117",
"C  c #BD5318",
"Z  c #9D4C25",
"A  c #865028",
"S  c #A45124",
"D  c #A15229",
"F  c #A95B27",
"G  c #A65C35",
"H  c #996B2D",
"J  c #9B612B",
"K  c #916B34",
"L  c #AE6424",
"P  c #A8692B",
"I  c #B06825",
"U  c #A6732E",
"Y  c #AA752E",
"T  c #B6732B",
"R  c #B9762D",
"E  c #B27A2F",
"W  c #BB7A2D",
"Q  c #B87534",
"!  c #AA6F32",
"~  c #C25619",
"^  c #C55919",
"/  c #CE5A1A",
"(  c #C65314",
")  c #D35E1A",
"_  c #DB5E16",
"`  c #D6611B",
"'  c #DB651D",
"]  c #DA651B",
"[  c #CD611C",
"{  c #E66A1E",
"}  c #EA6C1F",
"|  c #E4651A",
" . c #F26E1D",
".. c #D76622",
"X. c #D96B22",
"o. c #D56A22",
"O. c #DD7726",
"+. c #EA6E20",
"@. c #EC7522",
"#. c #EB7A24",
"$. c #E77825",
"%. c #F57422",
"&. c #FA7521",
"*. c #F77A22",
"=. c #F97D24",
"-. c #B77A4B",
";. c #B97D52",
":. c #AF6D44",
">. c #A58039",
",. c #C7812E",
"<. c #C28434",
"1. c #C68930",
"2. c #C88A34",
"3. c #CF993D",
"4. c #DD9531",
"5. c #DE9932",
"6. c #E5852B",
"7. c #F38326",
"8. c #F98326",
"9. c #F8842A",
"0. c #FB8C2A",
"q. c #F78C29",
"w. c #F4922C",
"e. c #FD922B",
"r. c #FC9C2E",
"t. c #F88838",
"y. c #F78236",
"u. c #E39C32",
"i. c #E69431",
"p. c #FA9C35",
"a. c #F79738",
"s. c #E79031",
"d. c #D5A43F",
"f. c #FFA22E",
"g. c #FDA632",
"h. c #FEAC33",
"j. c #FAAB3F",
"k. c #F5A634",
"l. c #FFB335",
"z. c #FFB835",
"x. c #FFB93B",
"c. c #A99548",
"v. c #AE9344",
"b. c #CF9C40",
"n. c #C28A4E",
"m. c #C9A145",
"M. c #D5A442",
"N. c #DAAB44",
"B. c #D7A647",
"V. c #DAB053",
"C. c #F9AE46",
"Z. c #E4BC4D",
"A. c #FBB545",
"S. c #FCBA45",
"D. c #FBA55F",
"F. c #FDA95F",
"G. c #F1AD51",
"H. c #C18C61",
"J. c #D4AA69",
"K. c #CFA578",
"L. c #D5AE79",
"P. c #FEB361",
"I. c #DEC353",
"U. c #E8C04F",
"Y. c #FEC548",
"T. c #EFCE56",
"R. c #E4CC58",
"E. c #FCCB53",
"W. c #FCC452",
"Q. c #F1D256",
"!. c #FED152",
"~. c #F2D559",
"^. c #FDDB5B",
"/. c #FBDC58",
"(. c #FDE35E",
"). c #FFE85E",
"_. c #FDC462",
"`. c #EFD162",
"'. c #FAD664",
"]. c #FDDA77",
"[. c #EBCF77",
"{. c #FEE661",
"}. c #FFEB62",
"|. c #FFE96D",
" X c #FEE66A",
".X c #FFF164",
"XX c #FFEB78",
"oX c #FFF073",
"OX c #D6B284",
"+X c #DBBA86",
"@X c #FDCA8D",
"#X c #FCCF86",
"$X c #FAD987",
"%X c #E6CD97",
"&X c #FFEE85",
"*X c #F8E381",
"=X c #FFF68C",
"-X c #FBEA9A",
";X c #EFDFAE",
":X c #F0DEA3",
">X c #FAE6AA",
",X c #FFF8A6",
"<X c #F2E4B4",
"1X c #FEE9B5",
"2X c #FEF8BC",
"3X c #FCF4BA",
"4X c #FFFDC5",
"5X c #FFFCCB",
"6X c #FFFFD2",
"7X c #FFFFDB",
/* pixels */
"                                                                                                                                ",
"                                                                                                                                ",
"                                                                                                                                ",
"                                                                                                                                ",
"                                                  p p p p p p p p p p a a a p                                                   ",
"                                                f f f f f f f f f f f f f f f f                                                 ",
"                                                Z D D D D D D D S v v v v v v l                                                 ",
"                                              G :.-.;.;.;.;.-.-.Q Q R R R R T I B                                               ",
"                                          a Z :.H.K.OXOXOXOXL.J.V.B.M.M.M.M.3.<.L k a                                           ",
"                                        p f D -.K.%X;X<X<X<X:X$X[.`.T.Q.Q.T.Z.3.T v f a                                         ",
"                                        k v P H.+X<X4X6X6X5X2X,X&X|.{.).}.{.Q.N.<.L v k                                         ",
"                                      N L T n.J.%X3X6X7X7X6X4X,X=XoX}..X.X}.^.U.M.<.T L B                                       ",
"                                  f l I <.3.V.[.-X2X6X7X7X6X4X,X=XoX}.}.}.}.(.Q.U.N.3.<.I l f                                   ",
"                                p f v T 3.Z.`.*X-X2X5X5X5X5X2X,X&X|.}.).).}.{.(.^.Q.Z.3.T v f p                                 ",
"                                p f v R d.T. X&X-X>X1X1X1X1X>X-XXX|.{.).).{.}.}.}.{.T.M.R v f p                                 ",
"                                p f N W N.~.|.XX$X#X@X@X@X@X#X].]. X}.}.}.}.}.}..X}.~.M.R N f p                                 ",
"                                s f N W N.~.{.'._.P.F.D.D.D.P._.'.{.}.}.}.{.}.}..X}.Q.M.R N f s                                 ",
"                                a f v R M.T.^.E.C.a.t.y.y.t.a.C.W.^.{.}.}.{.}.}.}.{.T.M.R v f a                                 ",
"                                > d z ! b.U.E.A.a.#.+.}  .%.9.p.A.E.^.(.(.{.{.}.}.{.T.m.Y z d >                                 ",
"                                : , < J <.N.C.a.6.] ) _ |  .*.0.g.A.Y.!.^.(.}.}..X}.R.m.H w , :                                 ",
"                                X ; 4 A T s.s.6.o.~ ( ( ' } %.8.0.p.j.S.E.^.}..X.X}.R.v.K 4 ; X                                 ",
"                                @ # 5 w F O.#.X.^ c b V ) } %.=.=.9.a.j.Y.^.{..X.X{.R.c.y 1 # .                                 ",
"                                o @ % 6 S X.+.` m x x n ) +.%.&.&.&.9.p.S.!.(.).).^.I.c.t - @ o                                 ",
"                                O + % 7 S ..{ ) n g g n ) +.&.&.&.&.=.a.j.Y.!././.!.Z.v.t = + O                                 ",
"                                O + % 7 S ..{ ) n g g n ) +.&.&.&.&.=.0.g.S.Y.Y.Y.Y.N.>.t & + o                                 ",
"                                O @ % 6 S ..} ` m x x n / } %.&.&.%.=.0.p.h.x.x.x.x.5.Y 0 & @ o                                 ",
"                                o @ % 6 S X.} ` m x g c ^ ' +.%.%.%.=.0.r.g.h.z.z.h.5.U 0 & @ o                                 ",
"                                o @ % 6 S ..{ ` m g f x n ^ ` | { %.=.0.r.g.h.l.l.h.4.U 0 & @ O                                 ",
"                                o @ % 6 S ..{ ` m g f f x c V / ' +.*.0.r.g.h.l.l.h.4.U 0 & @ O                                 ",
"                                o @ % 6 S X.+.] V x f h f g b ~ ` +.=.0.r.g.h.z.z.h.5.U 0 & @ o                                 ",
"                                o @ % 6 F X.@.{ ^ c j g g x c ~ ' @.8.e.r.h.h.z.z.h.5.U 0 & @ o                                 ",
"                                O @ % q L O.7.#.] ~ n n M n C [ $.7.0.r.g.h.h.z.z.l.u.Y 0 & @ o                                 ",
"                                O @ & q P 6.e.0.#.' ) / / / ` O.7.w.r.g.h.h.h.z.z.l.u.Y 0 & @ o                                 ",
"                                O @ & 0 U 4.r.e.7.@.+.{ { +.@.7.w.r.g.h.h.h.h.l.l.h.5.U 0 & @ o                                 ",
"                                o @ & 9 H 1.i.w.q.7.=.=.=.=.8.e.r.h.h.l.l.h.h.k.k.u.1.H 9 & @ o                                 ",
"                                  @ & 8 r H E ,.6.q.e.e.e.e.e.r.g.h.z.z.z.l.k.u.2.E H e 3 & @                                   ",
"                                      1 2 9 e P ,.w.f.f.f.f.f.h.h.l.z.z.z.l.k.2.U r 9 2 1                                       ",
"                                        $ * 2 e E i.g.h.h.g.g.h.h.h.h.l.l.h.u.E r 2 * $                                         ",
"                                        o @ * 9 H 1.5.u.u.5.5.5.5.5.5.u.u.5.1.H 9 * @ o                                         ",
"                                          o $ 2 r H U Y Y U U U U U U Y Y U H e 2 $ o                                           ",
"                                              1 8 9 0 0 0 0 0 0 0 0 0 0 0 0 9 3 1                                               ",
"                                                & & & & & & & & & & & & & & & &                                                 ",
"                                                @ @ @ @ @ @ @ @ @ @ @ @ @ @ @ @                                                 ",
"                                                  o o o o o o o o o o o o o o                                                   ",
"                                                                                                                                ",
"                                                                                                                                ",
"                                                                                                                                ",
"                                                                                                                                ",
"                                          u u u i i i i i i i i i i i i i i i i u u u                                           ",
"                                        u u u u u u u u u u u u u u u u u u u u u u u u                                         ",
"                                        u u u u u u u u u u u u u u u u u u u u u u u u                                         ",
"                                      u u u u u u u u u u u u u u u u u u u u u u u u u u                                       ",
"                                  u u u u u u u u u u u u u u u u u u u u u u u u u u u u u u                                   ",
"                                u u u u u u u u u u u u u u u u u u u u u u u u u u u u u u u u                                 ",
"                                u u u u u u u u u u u u u u u u u u u u u u u u u u u u u u u u                                 ",
"                                  u u u u u u u u u u u u u u u u u u u u u u u u u u u u u u                                   ",
"                                      u u u u u u u u u u u u u u u u u u u u u u u u u u                                       ",
"                                        u u u u u u u u u u u u u u u u u u u u u u u u                                         ",
"                                        u u u u u u u u u u u u u u u u u u u u u u u u                                         ",
"                                          u u u u u u u u u u u u u u u u u u u u u u                                           ",
"                                                                                                                                ",
"                                                                                                                                ",
"                                                                                                                                ",
"                                                                                                                                "
};
