/* XPM */
static char *d82c60c22a04460ab2349568d8a57a6f2xEBjjiwVqTcpR0W[] = {
/* columns rows colors chars-per-pixel */
"64 64 202 2 ",
"   c #ECEFF4",
".  c #3A181B",
"X  c #0A0A23",
"o  c #070A25",
"O  c #1A1525",
"+  c #161426",
"@  c #2A1A22",
"#  c #2B2126",
"$  c #342727",
"%  c #362927",
"&  c #382927",
"*  c #382B28",
"=  c #46221E",
"-  c #5D2115",
";  c #7B290F",
":  c #662B18",
">  c #433228",
",  c #523C29",
"<  c #5E3723",
"1  c #452E26",
"2  c #58402A",
"3  c #65482A",
"4  c #6B4D2B",
"5  c #7A4120",
"6  c #7D572B",
"7  c #79562C",
"8  c #3A4466",
"9  c #3B4669",
"0  c #8C2C06",
"q  c #8D2D0B",
"w  c #902E0B",
"e  c #823313",
"r  c #933811",
"t  c #9D3E12",
"y  c #A03F12",
"u  c #9C4414",
"i  c #9F4C19",
"p  c #924A1D",
"a  c #A14213",
"s  c #AA4614",
"d  c #AC4B16",
"f  c #A14F1B",
"g  c #A24815",
"h  c #B14614",
"j  c #B44A15",
"k  c #BB4E15",
"l  c #A4531B",
"z  c #A6581F",
"x  c #BD541A",
"c  c #B85718",
"v  c #BA621C",
"b  c #B6631D",
"n  c #9C4B27",
"m  c #865C2C",
"M  c #A15124",
"N  c #A15229",
"B  c #AD5829",
"V  c #A35734",
"C  c #996B2E",
"Z  c #AE6423",
"A  c #A36B2C",
"S  c #B06724",
"D  c #A7752F",
"F  c #AB752F",
"G  c #AB782F",
"H  c #B5732B",
"J  c #B2792E",
"K  c #BA782E",
"L  c #B8762C",
"P  c #AD6632",
"I  c #AA7730",
"U  c #AD7C32",
"Y  c #B97836",
"T  c #C35519",
"R  c #CE5A1A",
"E  c #C95717",
"W  c #D05C1A",
"Q  c #C54F12",
"!  c #C66B1E",
"~  c #D4651D",
"^  c #DD661D",
"/  c #D7691D",
"(  c #D4721E",
")  c #E0691F",
"_  c #E86C1E",
"`  c #C56325",
"'  c #D66B25",
"]  c #D57822",
"[  c #CF7028",
"{  c #EA6E20",
"}  c #EB7522",
"|  c #E97C27",
" . c #F97E24",
".. c #F77B23",
"X. c #EC7E34",
"o. c #B87A49",
"O. c #B47A53",
"+. c #B97D52",
"@. c #AD6944",
"#. c #C07F4F",
"$. c #BA8535",
"%. c #CC822D",
"&. c #C1822F",
"*. c #D88527",
"=. c #C28433",
"-. c #C68830",
";. c #C2863A",
":. c #CE993C",
">. c #C4953D",
",. c #DE9832",
"<. c #E3892B",
"1. c #ED8427",
"2. c #F58326",
"3. c #FB8426",
"4. c #F68D2A",
"5. c #FD8B28",
"6. c #F88829",
"7. c #EE9D2F",
"8. c #EC942C",
"9. c #F0942D",
"0. c #FF932B",
"q. c #FD9D2E",
"w. c #F19F2F",
"e. c #E19530",
"r. c #E39B32",
"t. c #E8953A",
"y. c #F79837",
"u. c #D4A23F",
"i. c #FFA12E",
"p. c #E2A63B",
"a. c #FDA531",
"s. c #FEAB34",
"d. c #FEAC3C",
"f. c #F8A335",
"g. c #FDB83F",
"h. c #BF8962",
"j. c #C18549",
"k. c #C28C57",
"l. c #D08847",
"z. c #E18344",
"x. c #F0974C",
"c. c #CFA141",
"v. c #D9AB45",
"b. c #D5A646",
"n. c #D5A959",
"m. c #DBB156",
"M. c #FEAE48",
"N. c #E4BC4E",
"B. c #E9BA48",
"V. c #FDB442",
"C. c #FBB248",
"Z. c #EFB85D",
"A. c #F9BE53",
"S. c #D5AC6B",
"D. c #CFA579",
"F. c #D5AF79",
"G. c #DAB47C",
"H. c #FDB264",
"J. c #F8BD7E",
"K. c #E7AE69",
"L. c #E6C14D",
"P. c #FEC44B",
"I. c #EFCE56",
"U. c #E9C553",
"Y. c #FECB56",
"T. c #FED454",
"R. c #F2D459",
"E. c #FCDB5B",
"W. c #F2D457",
"Q. c #FEE35E",
"!. c #EFD061",
"~. c #F9DA68",
"^. c #F7DA79",
"/. c #F3CA73",
"(. c #FCE561",
"). c #FEE96E",
"_. c #FEE867",
"`. c #FDEA7C",
"'. c #FFF374",
"]. c #D4B084",
"[. c #D7B689",
"{. c #F4DD8F",
"}. c #FDD698",
"|. c #EECE93",
" X c #FEE985",
".X c #FFF78B",
"XX c #FCE69A",
"oX c #FFF796",
"OX c #F1DFA3",
"+X c #F0E1AF",
"@X c #F6E5A4",
"#X c #FFF4A3",
"$X c #FFFFAC",
"%X c #EFE1B4",
"&X c #F5E4B3",
"*X c #FDF5BC",
"=X c #FFF9BB",
"-X c #FEF5B7",
";X c #FFFFC5",
":X c #FFFCCB",
">X c #FFFFD3",
",X c #FFFFDA",
/* pixels */
"                                                                                                                                ",
"                                                                                                                                ",
"                                                                                                                                ",
"                                                                                                                                ",
"                                                  0 0 0 0 0 0 0 0 0 0 0 0 q 0                                                   ",
"                                                r r r r r r r r r r r r r r r r                                                 ",
"                                                i f f M N N N N N N N N M f f i                                                 ",
"                                              z S H Y Y o.o.+.+.+.+.o.o.Y Y H S l                                               ",
"                                          q u Z =.:.b.n.S.F.].].].].F.S.n.b.:.&.Z u 0                                           ",
"                                        q r f H :.N.!.^.{.OX+X%X%X+XOX{.^.!.N.:.H f r q                                         ",
"                                        u f Z =.v.R.)..X#X=X:X:X:X:X=X#X.X).R.v.;.P N n                                         ",
"                                      l Z H =.u.L.E.'..X$X;X>X,X,X>X;X$X.X'.(.U.n.k.o.@.V                                       ",
"                                  q u Z $.:.v.L.W.(.'..X$X;X>X,X,X>X;X$X.X'.).~./.G.D.h.@.n q                                   ",
"                                q r f H :.N.W.E.Q.(.). X#X=X:X:X:X:X=X#X X).).`.XX@X|.D.O.N r 0                                 ",
"                                u f Z =.v.W.Q.Q.Q.E.~.^.{.OX+X%X%X+XOX{.^.~.~. X#X-X+X[.k.P f u                                 ",
"                              z Z H =.c.U.Q.(.Q.T.P.A.Z.K.G.].].].].G.K.Z.A.Y.^.#X=X*X|.S.j.H Z l                               ",
"                          r i S =.:.v.U.R.(.Q.T.P.d.y.z.l.#.O.O.O.O.j.l.t.y.M./.@X=X=X@X/.m.:.&.S i r                           ",
"                        0 r f H :.N.W.E.(.Q.E.P.d.y.| ' ` B N n n N B ` ' | x.H.}.-X-X#X X!.N.:.H f r 0                         ",
"                        0 r f L b.I.Q.(.(.E.Y.C.y.| ) R x d g u u a s k R ) X.x.J.}.@XoX X).I.u.L f r 0                         ",
"                        0 r l K v.R.(.(.E.P.C.t.| ' R E c c c c j j j k Q R ' z.K.J.}. X`._.R.v.K l r 0                         ",
"                        w r l K v.R.Q.E.P.d.9.| ` T x x ! ] ] ( ~ W R Q k k T [ z.x.H.Y.~._.R.v.K l r w                         ",
"                        q r f K b.I.E.Y.V.y.| ~ x d d v ] <.8.9.2.} ^ R k s d x ' X.y.M.Y.E.I.b.K f r q                         ",
"                        ; e p F c.U.T.P.d.6.{ R h a g b *.7.a.q.5...{ R h a a j R { 6.f.P.T.U.c.F p e ;                         ",
"                        - : 5 C >.B.P.V.q. ._ E h t u b *.f.s.a.0.3.{ W h t t h E _  .q.V.P.B.>.C 5 : -                         ",
"                        . = < m $.p.g.d.0. ._ E h t u b *.f.s.a.0.3.{ W h t t h R _  .0.d.g.p.$.m < = .                         ",
"                        O @ 1 7 U p.s.a.0. ._ R h a g b *.7.a.i.0. .{ R h y y h R _  .0.a.s.p.U 7 1 @ O                         ",
"                        X O & 4 D ,.a.i.0. ._ R h a g c ] 8.i.q.5. .{ R h y y h R {  .0.i.a.,.D 4 & O X                         ",
"                        o + $ 4 D r.a.i.0. ._ R h t u c ] 4.0.0.5. .{ W h t t h R _  .0.i.a.r.D 4 $ + o                         ",
"                        o + % 4 D r.s.i.0. ._ R h t u c ' 1.5.5.3. .{ W h t t h R _  .0.i.s.r.D 4 % + o                         ",
"                        o O % 4 D ,.a.i.0. .{ R j a a k ~ } .. . ..._ R k a a j R {  .0.i.a.,.D 4 % O o                         ",
"                        o O % 3 C -.e.9.4.2.} ~ x d s k R ^ _ } } _ ^ R k s d x ~ } 2.4.9.e.-.C 3 % O o                         ",
"                          O $ 2 6 C J %.<.4.2.} ~ T k k T E R W W R R T k k T ~ } 2.4.<.%.J C 6 2 $ O                           ",
"                              > , 3 6 A %.9.0.6.} / R T k j h h h h k k T R / } 6.0.8.%.A 6 3 , >                               ",
"                                # & , 6 J e.q.0.6.} ) R k s a t t a s x R ) } 6.0.q.e.J 6 , & #                                 ",
"                                X O & 3 C -.e.9.4.2.} / T d g u u g d T / } 2.4.9.e.-.C 3 & O X                                 ",
"                                  X # , 7 C J %.<.4.4.1.] ! v v v v ! ] 1.6.4.<.%.J C 7 , # X                                   ",
"                                      * , 3 6 A %.9.q.q.9.<.*.*.*.*.<.9.q.q.9.%.A 6 3 , *                                       ",
"                                        # & , 6 J e.a.a.f.w.7.7.7.7.w.f.a.a.e.J 6 , & #                                         ",
"                                        X O & 3 C -.,.r.r.,.,.,.,.,.,.r.r.,.-.C 3 & O X                                         ",
"                                          X # , 6 C D G G D I I I I D G G D C 6 , # X                                           ",
"                                              > 2 3 4 4 4 4 4 4 4 4 4 4 4 4 3 2 >                                               ",
"                                                $ % % & & & & & & & & & & % % $                                                 ",
"                                                O O O O O O O O O O O O O O O O                                                 ",
"                                                  X X X X X X X X X X X X X X                                                   ",
"                                                                                                                                ",
"                                                                                                                                ",
"                                                                                                                                ",
"                                                                                                                                ",
"                                  8 8 8 8 8 8 8 9 9 9 9 9 9 9 9 9 9 9 9 9 9 9 9 8 8 8 8 8 8 8                                   ",
"                                8 8 8 8 8 8 8 8 8 8 8 8 8 8 8 8 8 8 8 8 8 8 8 8 8 8 8 8 8 8 8 8                                 ",
"                                8 8 8 8 8 8 8 8 8 8 8 8 8 8 8 8 8 8 8 8 8 8 8 8 8 8 8 8 8 8 8 8                                 ",
"                              8 8 8 8 8 8 8 8 8 8 8 8 8 8 8 8 8 8 8 8 8 8 8 8 8 8 8 8 8 8 8 8 8 8                               ",
"                          8 8 8 8 8 8 8 8 8 8 8 8 8 8 8 8 8 8 8 8 8 8 8 8 8 8 8 8 8 8 8 8 8 8 8 8 8 8                           ",
"                        8 8 8 8 8 8 8 8 8 8 8 8 8 8 8 8 8 8 8 8 8 8 8 8 8 8 8 8 8 8 8 8 8 8 8 8 8 8 8 8                         ",
"                        8 8 8 8 8 8 8 8 8 8 8 8 8 8 8 8 8 8 8 8 8 8 8 8 8 8 8 8 8 8 8 8 8 8 8 8 8 8 8 8                         ",
"                          8 8 8 8 8 8 8 8 8 8 8 8 8 8 8 8 8 8 8 8 8 8 8 8 8 8 8 8 8 8 8 8 8 8 8 8 8 8                           ",
"                              8 8 8 8 8 8 8 8 8 8 8 8 8 8 8 8 8 8 8 8 8 8 8 8 8 8 8 8 8 8 8 8 8 8                               ",
"                                8 8 8 8 8 8 8 8 8 8 8 8 8 8 8 8 8 8 8 8 8 8 8 8 8 8 8 8 8 8 8 8                                 ",
"                                8 8 8 8 8 8 8 8 8 8 8 8 8 8 8 8 8 8 8 8 8 8 8 8 8 8 8 8 8 8 8 8                                 ",
"                                  8 8 8 8 8 8 8 8 8 8 8 8 8 8 8 8 8 8 8 8 8 8 8 8 8 8 8 8 8 8                                   ",
"                                                                                                                                ",
"                                                                                                                                ",
"                                                                                                                                ",
"                                                                                                                                "
};
