/* XPM */
static char *_846a4833a9b4b83e90e3efaa07d4da8mjp5vWg7zNTW1XUJ[] = {
/* columns rows colors chars-per-pixel */
"64 64 187 2 ",
"   c #ECEFF4",
".  c #1D0D1F",
"X  c #3B191B",
"o  c #070B25",
"O  c #0B0C24",
"+  c #161426",
"@  c #191525",
"#  c #2A1A23",
"$  c #2B2026",
"%  c #352325",
"&  c #372927",
"*  c #382927",
"=  c #352B2A",
"-  c #38302C",
";  c #46221E",
":  c #5D2316",
">  c #5D2C1D",
",  c #7B280E",
"<  c #662B18",
"1  c #7B2E12",
"2  c #793318",
"3  c #442522",
"4  c #433229",
"5  c #533C29",
"6  c #583F29",
"7  c #5E3C27",
"8  c #663624",
"9  c #683B25",
"0  c #713922",
"q  c #584029",
"w  c #64472A",
"e  c #6A4629",
"r  c #66482A",
"t  c #6A4B2A",
"y  c #7A4422",
"u  c #7B562B",
"i  c #7D582C",
"p  c #675433",
"a  c #6A5C38",
"s  c #746238",
"d  c #3A4466",
"f  c #3B4669",
"g  c #8D2D06",
"h  c #8C2D0C",
"j  c #902E0B",
"k  c #8E310B",
"l  c #91320B",
"z  c #833616",
"x  c #943811",
"c  c #923710",
"v  c #9C4415",
"b  c #9F4D1A",
"n  c #96461B",
"m  c #A14F1B",
"M  c #A84819",
"N  c #A4521B",
"B  c #A6581F",
"V  c #B8521C",
"C  c #9F5028",
"Z  c #9B4825",
"A  c #A24E23",
"S  c #A25123",
"D  c #A15229",
"F  c #A75824",
"G  c #BA5F2D",
"H  c #A65F3A",
"J  c #996B2D",
"K  c #9B6D32",
"L  c #866836",
"P  c #AE6424",
"I  c #A76B2C",
"U  c #B06826",
"Y  c #B06725",
"T  c #A5722E",
"R  c #AB752F",
"E  c #B7722B",
"W  c #B9762D",
"Q  c #B27B2F",
"!  c #AD6631",
"~  c #BA6C3E",
"^  c #B27D30",
"/  c #A67832",
"(  c #CA591B",
")  c #DE671E",
"_  c #FC731F",
"`  c #E3681C",
"'  c #D86722",
"]  c #D86822",
"[  c #D46726",
"{  c #DD7727",
"}  c #E76E21",
"|  c #F67522",
" . c #FB7521",
".. c #F77A23",
"X. c #FC7D24",
"o. c #EA7E34",
"O. c #AF6E48",
"+. c #B5754C",
"@. c #B77C52",
"#. c #D57D43",
"$. c #A58039",
"%. c #C18433",
"&. c #C68930",
"*. c #CB8C31",
"=. c #C2873D",
"-. c #CF9A3E",
";. c #DD9531",
":. c #DE9A33",
">. c #E28B2D",
",. c #FC8427",
"<. c #FC8D2B",
"1. c #F8842A",
"2. c #FD932B",
"3. c #FD9D2E",
"4. c #E39C32",
"5. c #FB9C35",
"6. c #F99436",
"7. c #FDA02F",
"8. c #E8A033",
"9. c #F0A533",
"0. c #FDA632",
"q. c #F7AA34",
"w. c #FEAD34",
"e. c #FAAB3F",
"r. c #FDA238",
"t. c #FFB334",
"y. c #FFBA35",
"u. c #FEB63A",
"i. c #FFBD3B",
"p. c #A48940",
"a. c #A99548",
"s. c #B79C48",
"d. c #C28E57",
"f. c #EE9C58",
"g. c #C9A145",
"h. c #D5A442",
"j. c #D7A844",
"k. c #DBAC44",
"l. c #D9AA48",
"z. c #DEB84B",
"x. c #D3A75B",
"c. c #FEAE49",
"v. c #E4BC4D",
"b. c #FCB943",
"n. c #FCB746",
"m. c #C19068",
"M. c #D69460",
"N. c #CFA47A",
"B. c #D3A879",
"V. c #FCB463",
"C. c #F1BB7F",
"Z. c #DEC353",
"A. c #E6C04F",
"S. c #FFCB47",
"D. c #FCC44C",
"F. c #FEC344",
"G. c #EFCE56",
"H. c #E2CC59",
"J. c #E8C95C",
"K. c #FDCD53",
"L. c #FFC653",
"P. c #F1D257",
"I. c #FED152",
"U. c #FFDB53",
"Y. c #F3D559",
"T. c #F7DC5C",
"R. c #FDDC5B",
"E. c #FDE35E",
"W. c #FFE95E",
"Q. c #FFC767",
"!. c #FCDB64",
"~. c #E6CB7D",
"^. c #F2D973",
"/. c #FEE661",
"(. c #FFEB63",
"). c #FDE66A",
"_. c #FEE86D",
"`. c #FFF165",
"'. c #FFE577",
"]. c #DBBB82",
"[. c #FFD48B",
"{. c #EFD09A",
"}. c #E5CB9A",
"|. c #FDEA82",
" X c #FFE085",
".X c #FCEB98",
"XX c #F7E4A4",
/* pixels */
"                                                                                                                                ",
"                                                                                                                                ",
"                                                                                                                                ",
"                                                                                                                                ",
"                                                          h h h h h h                                                           ",
"                                                        x x x x x x x x                                                         ",
"                                                        b m m m m m m b                                                         ",
"                                                      B U E W W W W E Y B                                                       ",
"                                                  h v P %.-.h.j.j.h.-.%.P v g                                                   ",
"                                                h x m E -.v.G.Y.Y.G.v.-.E m x h                                                 ",
"                                                v m P %.k.P./.(.(./.Y.l.=.! D Z                                                 ",
"                                              B P E %.h.A.T.(.`.`.(.!.J.x.d.@.O.H                                               ",
"                                          x b U %.-.k.A.P.E.(.`.`.(.).^.~.].B.m.O.C x                                           ",
"                                        h x m E -.v.P.T.E./.(.(.W.(._.|..XXX}.N.+.D x g                                         ",
"                                        h x m W h.G./.(.(.(./.W.E./._.|..XXX{.B.+.A x g                                         ",
"                                        h x N W h.Y.(.`.(.(.(.(.(.(.).'. X[.C.M.~ A x k                                         ",
"                                        j x N W j.P.(.`.(.(.(.(.(.(./.!.Q.V.f.#.G M x l                                         ",
"                                        h x m W h.G./.(.(.(./.(.(./.R.L.c.6.o.[ V v c k                                         ",
"                                        , z n R g.G./.(.(.(./.E.E.R.K.n.5.1.} ( M x z 1                                         ",
"                                        : < y K g.G.(.`.(.(.E.R.I.D.n.r.<...` V v 2 < :                                         ",
"                                        X ; 7 L s.H.(.`.`.(.R.K.n.e.5.<.,...) V z > ; X                                         ",
"                                        . # 4 s a.H./.`.`./.R.D.e.6.1.X.X.| ] F 0 3 # @                                         ",
"                                        O @ - a a.Z.R.W.W.E.I.n.5.1.|  . .| ] S 8 % @ O                                         ",
"                                        o + = p p.z.I.U.U.I.D.e.6.X.| _  .| ] S 8 % + o                                         ",
"                                        O + = p $.k.F.S.S.F.b.r.<.X.| _  .| ] S 8 % + O                                         ",
"                                        O @ = t / :.u.i.i.u.w.5.<.X.|  . .| ] S 8 % @ O                                         ",
"                                        O @ & t T :.w.t.t.w.w.3.2.1.X.X. .| ] S 8 % @ O                                         ",
"                                        O @ & t T ;.w.t.t.w.w.7.2.<.,.,.X.| ' A 8 % @ O                                         ",
"                                        O @ & t T ;.w.t.t.w.w.0.0.3.2.<.,...' A 8 % @ O                                         ",
"                                        O @ & t T :.w.t.t.w.w.w.w.0.7.2.<...] A 8 % @ O                                         ",
"                                        O @ & t T :.w.t.t.w.w.w.w.w.w.3.2.1.{ S 8 % @ O                                         ",
"                                        O @ & t R 4.t.t.t.w.w.w.t.t.w.w.7.2.{ F 9 & @ O                                         ",
"                                        O @ & t R 4.t.t.t.w.w.w.w.w.w.w.w.7.>.I e & @ O                                         ",
"                                        O @ & t T :.w.t.t.w.w.w.w.w.w.w.w.0.;.I e & @ O                                         ",
"                                        O @ & w J &.4.9.q.w.w.t.t.w.w.q.9.4.&.J w & @ O                                         ",
"                                          @ & 6 u J Q *.4.q.t.t.t.t.q.4.*.^ J u q & @                                           ",
"                                              4 5 r i T *.9.t.y.y.t.9.*.T i r 5 4                                               ",
"                                                $ * 5 i Q 4.w.t.t.w.4.Q i 5 * $                                                 ",
"                                                O @ * r J &.:.8.8.:.&.J r * @ O                                                 ",
"                                                  O $ 5 u J T R R T J u 5 $ O                                                   ",
"                                                      4 6 w t t t t w 6 4                                                       ",
"                                                        & & & & & & & &                                                         ",
"                                                        @ @ @ @ @ @ @ @                                                         ",
"                                                          O O O O O O                                                           ",
"                                                                                                                                ",
"                                                                                                                                ",
"                                                                                                                                ",
"                                                                                                                                ",
"                                                  d d d f f f f f f f f d d d                                                   ",
"                                                d d d d d d d d d d d d d d d d                                                 ",
"                                                d d d d d d d d d d d d d d d d                                                 ",
"                                              d d d d d d d d d d d d d d d d d d                                               ",
"                                          d d d d d d d d d d d d d d d d d d d d d d                                           ",
"                                        d d d d d d d d d d d d d d d d d d d d d d d d                                         ",
"                                        d d d d d d d d d d d d d d d d d d d d d d d d                                         ",
"                                          d d d d d d d d d d d d d d d d d d d d d d                                           ",
"                                              d d d d d d d d d d d d d d d d d d                                               ",
"                                                d d d d d d d d d d d d d d d d                                                 ",
"                                                d d d d d d d d d d d d d d d d                                                 ",
"                                                  d d d d d d d d d d d d d d                                                   ",
"                                                                                                                                ",
"                                                                                                                                ",
"                                                                                                                                ",
"                                                                                                                                "
};
