/* XPM */
static char *_5b829b282c0466ac74bff79c4b536d2Vddmo9fE4a1K2Mcs[] = {
/* columns rows colors chars-per-pixel */
"64 64 206 2 ",
"   c #ECEFF4",
".  c #3B1A1C",
"X  c #070D26",
"o  c #090921",
"O  c #0B0B24",
"+  c #0B0C24",
"@  c #0B0D25",
"#  c #0B0E25",
"$  c #080E26",
"%  c #0C0E25",
"&  c #0C0F25",
"*  c #151326",
"=  c #161426",
"-  c #1D1322",
";  c #191425",
":  c #191525",
">  c #1A1525",
",  c #2A1922",
"<  c #322025",
"1  c #332025",
"2  c #362125",
"3  c #362225",
"4  c #372225",
"5  c #372425",
"6  c #352727",
"7  c #372626",
"8  c #362827",
"9  c #372827",
"0  c #372927",
"q  c #46221D",
"w  c #5D2215",
"e  c #7B290F",
"r  c #662B18",
"t  c #7A3E1E",
"y  c #452723",
"u  c #493528",
"i  c #5D3221",
"p  c #643424",
"a  c #653524",
"s  c #663624",
"d  c #673624",
"f  c #673724",
"g  c #673925",
"h  c #683E26",
"j  c #723F25",
"k  c #5B4129",
"l  c #684328",
"z  c #65482A",
"x  c #694829",
"c  c #694A2A",
"v  c #6B4C2A",
"b  c #6A4C2B",
"n  c #7F592C",
"m  c #3A4466",
"M  c #3B4669",
"N  c #8D2C06",
"B  c #8C2C07",
"V  c #8F2D07",
"C  c #8B2D0B",
"Z  c #8C2C08",
"A  c #8C2D09",
"S  c #8C2D0B",
"D  c #8C2D0C",
"F  c #902E08",
"G  c #823313",
"H  c #933810",
"J  c #923811",
"K  c #933811",
"L  c #963910",
"P  c #973910",
"I  c #92491C",
"U  c #9F4D19",
"Y  c #9F4D1A",
"T  c #A04E1A",
"R  c #A04E1B",
"E  c #A14F1B",
"W  c #A04F1D",
"Q  c #A14F1D",
"!  c #854D26",
"~  c #9A5E28",
"^  c #A04E22",
"/  c #A24F23",
"(  c #A15020",
")  c #A25023",
"_  c #A25123",
"`  c #A45220",
"'  c #A15124",
"]  c #A15127",
"[  c #A45224",
"{  c #A25525",
"}  c #A35D27",
"|  c #A95C20",
" . c #A95C27",
".. c #996B2D",
"X. c #A4662A",
"o. c #A56E2D",
"O. c #AD6D2C",
"+. c #B16A25",
"@. c #B16A26",
"#. c #B46F2D",
"$. c #A6732E",
"%. c #A8762F",
"&. c #A9762F",
"*. c #AB772F",
"=. c #B67129",
"-. c #B6722B",
";. c #B8752A",
":. c #B9762B",
">. c #B87632",
",. c #B9793B",
"<. c #BB7A3B",
"1. c #FF781F",
"2. c #D76521",
"3. c #D76621",
"4. c #D86722",
"5. c #D86822",
"6. c #D86922",
"7. c #D86923",
"8. c #D96F25",
"9. c #DB7629",
"0. c #DA7A28",
"q. c #F77220",
"w. c #F77320",
"e. c #F77421",
"r. c #F77422",
"t. c #F77522",
"y. c #F77622",
"u. c #F77722",
"i. c #FF7920",
"p. c #FF7A21",
"a. c #FF7C22",
"s. c #FF7D22",
"d. c #F87D24",
"f. c #B97A45",
"g. c #BB7C45",
"h. c #B97B4C",
"j. c #B97C4C",
"k. c #DC872C",
"l. c #C28532",
"z. c #C28534",
"x. c #C68930",
"c. c #CF993A",
"v. c #CE993E",
"b. c #CF9A3E",
"n. c #DD9230",
"m. c #DD9832",
"M. c #DE9932",
"N. c #DF9932",
"B. c #FF8424",
"V. c #F8852A",
"C. c #F98A29",
"Z. c #FF8C2B",
"A. c #FF9229",
"S. c #FB992D",
"D. c #E08D33",
"F. c #E39D33",
"G. c #E49E33",
"H. c #F99F36",
"J. c #D5A33E",
"K. c #FFA22E",
"L. c #E9A033",
"P. c #FDA632",
"I. c #FFAF32",
"U. c #FDAD34",
"Y. c #FFAE34",
"T. c #FFA738",
"R. c #FFB435",
"E. c #FFB535",
"W. c #FFB735",
"Q. c #FFB835",
"!. c #FFBE36",
"~. c #FFBF36",
"^. c #D7A740",
"/. c #D5A54B",
"(. c #D6AB5C",
"). c #D7AB5C",
"_. c #E7A940",
"`. c #E4BC4E",
"'. c #FBBD46",
"]. c #D6AE6D",
"[. c #D5AF79",
"{. c #ECC14F",
"}. c #FFC649",
"|. c #EFCF56",
" X c #F4D75A",
".X c #FDD859",
"XX c #FFE25D",
"oX c #EFD062",
"OX c #F0D97A",
"+X c #F2DA7B",
"@X c #FDE96F",
"#X c #FEE96F",
"$X c #FFF475",
"%X c #F0DD92",
"&X c #F2DE93",
"*X c #FFF38C",
"=X c #FFF58C",
"-X c #FFFE93",
";X c #FFFF94",
":X c #F0DEA2",
">X c #FFF7A7",
",X c #FFF9A8",
"<X c #FFFFB1",
"1X c #FFFFB2",
"2X c #FFF9BA",
"3X c #FFFFC4",
/* pixels */
"                                                                                                                                ",
"                                                                                                                                ",
"                                                                                                                                ",
"                                                                                                                                ",
"                                                          S S D D S S                                                           ",
"                                                        H H H H H H H H                                                         ",
"                                                        Y E E E E E E Y                                                         ",
"                                                      | +.=.:.:.:.:.=.+.|                                                       ",
"                                                  H Y +.l.c.J.^.^.J.c.l.+.Y H                                                   ",
"                                                S H E =.b.`.|. X X|.`.b.=.E H S                                                 ",
"                                                S H Q >./.oX@X$X$X@XoX/.>.Q H S                                                 ",
"                                                S H ( ,.(.+X=X;X;X=X+X(.,.( H S                                                 ",
"                                                S H ] f.].&X,X1X1X,X&X].f.] H S                                                 ",
"                                                B H ] h.[.:X2X3X3X2X:X[.h.] H B                                                 ",
"                                                B H ] j.[.:X2X3X3X2X:X[.j.] H B                                                 ",
"                                                B L [ g.].&X>X1X1X>X&X].g.[ L B                                                 ",
"                                                F L ` ,.(.+X*X-X-X*X+X(.,.` L F                                                 ",
"                                                C H Q >./.oX@X$X$X@XoX/.>.Q H C                                                 ",
"                                                e G I O.b.{..XXXXX.X{.b.O.I G e                                                 ",
"                                                w r t ~ z._.'.}.}.'._.z.~ t r w                                                 ",
"                                                . q i ! #.D.H.T.T.H.D.#.! i q .                                                 ",
"                                                - , y j  .9.V.Z.Z.V.9. .j y , -                                                 ",
"                                                & > 4 p ( 7.u.s.s.u.7.( p 4 > &                                                 ",
"                                                X * < p ^ 2.q.1.1.q.2.^ p < * X                                                 ",
"                                                $ = < p ^ 2.q.i.i.q.2.^ p < = $                                                 ",
"                                                $ > 4 p ( 7.u.s.s.u.7.( p 4 > $                                                 ",
"                                                & > 4 p ( 7.u.s.s.u.7.( p 4 > &                                                 ",
"                                                & > 4 p ( 4.u.i.i.u.4.( p 4 > &                                                 ",
"                                                & > 4 p ^ 4.u.i.i.u.4.^ p 4 > &                                                 ",
"                                                & > 4 p ( 7.u.s.s.u.7.( p 4 > &                                                 ",
"                                                & > 4 g { 8.d.B.B.d.8.{ g 4 > &                                                 ",
"                                                $ > 5 h } 0.C.A.A.C.0.} h 5 > $                                                 ",
"                                                $ > 5 l X.k.S.K.K.S.k.X.l 5 > $                                                 ",
"                                                $ > 0 c o.n.P.I.I.P.n.o.c 0 > $                                                 ",
"                                                O > 0 c $.m.U.Q.Q.U.m.$.c 0 > O                                                 ",
"                                                O > 0 v &.F.W.~.~.W.F.&.v 0 > O                                                 ",
"                                                O > 0 v &.G.W.~.~.W.G.&.v 0 > O                                                 ",
"                                                O > 0 c $.m.U.W.W.U.m.$.c 0 > O                                                 ",
"                                                O > 0 z ..x.m.L.L.m.x...z 0 > O                                                 ",
"                                                  > 5 k n ..$.&.&.$...n k 5 >                                                   ",
"                                                      u k z c v v c z k u                                                       ",
"                                                        5 0 0 0 0 0 0 5                                                         ",
"                                                        > > > > > > > >                                                         ",
"                                                          o o o o o o                                                           ",
"                                                                                                                                ",
"                                                                                                                                ",
"                                                                                                                                ",
"                                                                                                                                ",
"                                                          M M M M M M                                                           ",
"                                                        m m m m m m m m                                                         ",
"                                                        m m m m m m m m                                                         ",
"                                                      m m m m m m m m m m                                                       ",
"                                                  m m m m m m m m m m m m m m                                                   ",
"                                                m m m m m m m m m m m m m m m m                                                 ",
"                                                m m m m m m m m m m m m m m m m                                                 ",
"                                                  m m m m m m m m m m m m m m                                                   ",
"                                                      m m m m m m m m m m                                                       ",
"                                                        m m m m m m m m                                                         ",
"                                                        m m m m m m m m                                                         ",
"                                                          m m m m m m                                                           ",
"                                                                                                                                ",
"                                                                                                                                ",
"                                                                                                                                ",
"                                                                                                                                "
};
