/* XPM */
static char *_9282feb0e4c4bc9c2a3aad4f00f8d57dJCaXUCRpktjPncQ[] = {
/* columns rows colors chars-per-pixel */
"64 64 24 1 ",
"  c #4A4743",
". c #4B4945",
"X c #6D675D",
"o c #6D685D",
"O c #706A60",
"+ c #746F64",
"@ c #777363",
"# c #757065",
"$ c #787363",
"% c #7A7666",
"& c #7F7B6A",
"* c #807C6B",
"= c #898773",
"- c #8B8976",
"; c #8F8E7B",
": c #908F7C",
"> c #999983",
", c #9B9B86",
"< c #9E9F8B",
"1 c #9F9F8C",
"2 c #9BA39D",
"3 c #9DA59F",
"4 c #A0A9A3",
"5 c #A1A9A4",
/* pixels */
"2333<3>3,,,,<,,O5333,4,3>>,,,,<O2333<3>3,,,,<,,O5333,4,3>>,,,,<O",
"2--:---=-:-:--:*3==---:-------=@2--:---=-:-:--:*3==---:-------=@",
"3;-:=---:-:=---%3;-=-:-:=:---;:%3;-:=---:-:=---%3;-=-:-:=:---;:%",
",-:=--:=-:-----%,---:-:=:;-==--%,-:=--:=-:-----%,---:-:=:;-==--%",
"3-----:---=--:-%3:-=-----=--:-=%3-----:---=--:-%3:-=-----=--:-=%",
",--=;:---:-----X<----:=-:----:-O,--=;:---:-----X<----:=-:----:-O",
",-==:---:-;---:%,;----:=----:-;$,-==:---:-;---:%,;----:=----:-;$",
">--:-;=:-:--=:-#,--=-:-----:---O>--:-;=:-:--=:-#,--=-:-----:---O",
",-;-:---=--;:-=%,---::;--=:=;--%,-;-:---=--;:-=%,---::;--=:=;--%",
",--;---;---:::-X>--:=:-----:---o,--;---;---:::-X>--:=:-----:---o",
">-:=;---=---:--%,-;-::--=-:;-=:%>-:=;---=---:--%,-;-::--=-:;-=:%",
",:=:----=--:=:=O,=-:-----:-;--=O,:=:----=--:=:=O,=-:-----:-;--=O",
"1---------:;:;-O,--:--;=-:-----O1---------:;:;-O,--:--;=-:-----O",
",-=---=--:=::-=#,--------------#,-=---=--:=::-=#,--------------#",
",:=---=-:-=----+,:---=---=---;:O,:=---=-:-=----+,:---=---=---;:O",
"O%%%*&%*O%O%OOO.#%%@%%*%O*X*OOX.O%%%*&%*O%O%OOO.#%%@%%*%O*X*OOX.",
"2332,3,3,,>,,,,o3432,5>4,,1,<,1O2332,3,3,,>,,,,o3432,5>4,,1,<,1O",
"3-:-=-----=---:%3=--:----::----%3-:-=-----=---:%3=--:----::----%",
"3=-==---=:---;-@3:=:--:---:::--%3=-==---=:---;-@3:=:--:---:::--%",
"1-:-=:-=:---:--%,-:::---=--:-=-%1-:-=:-=:---:--%,-:::---=--:-=-%",
"2-;----:;--:--;%4:-:-:---=:--=-&2-;----:;--:--;%4:-:-:---=:--=-&",
",--=--:-:-;----O1-:=-----:==:--O,--=--:-:-;----O1-:=-----:==:--O",
">-:-=:-:::--=--@,=---;-=----:;-%>-:-=:-:::--=--@,=---;-=----:;-%",
",---;-:;=--:-=:#,-------:--:---+,---;-:;=--:-=:#,-------:--:---+",
",--::=-::------%<--=----:-:-:=:%,--::=-::------%<--=----:-:-:=:%",
",:--:----;---:-O,-:--;-:=;-:::=O,:--:----;---:-O,-:--;-:=;-:::=O",
",=-:---;---;---%,-=:--:-:;:=:--%,=-:---;---;---%,-=:--:-:;:=:--%",
",-==:---=--=--:X,----==:-:-:---+,-==:---=--=--:X,----==:-:-:---+",
",----:-:--=:-;-O,-----=---=--=-O,----:-:--=:-;-O,-----=---=--=-O",
",-=-:-:--::-:--#>---;:-:-:--:-;O,-=-:-:--::-:--#>---;:-:-:--:-;O",
",;---=-----;---O,-:=-;--=;-----O,;---=-----;---O,-:=-;--=;-----O",
"O%&%*%%%O%o%OXO O*%%%%&%X%O%OO#.O%&%*%%%O%o%OXO O*%%%%&%X%O%OO#.",
"2333<3>3,,,,<,,O5333,4,3>>,,,,<O2333<3>3,,,,<,,O5333,4,3>>,,,,<O",
"2--:---=-:-:--:*3==---:-------=@2--:---=-:-:--:*3==---:-------=@",
"3;-:=---:-:=---%3;-=-:-:=:---;:%3;-:=---:-:=---%3;-=-:-:=:---;:%",
",-:=--:=-:-----%,---:-:=:;-==--%,-:=--:=-:-----%,---:-:=:;-==--%",
"3-----:---=--:-%3:-=-----=--:-=%3-----:---=--:-%3:-=-----=--:-=%",
",--=;:---:-----X<----:=-:----:-O,--=;:---:-----X<----:=-:----:-O",
",-==:---:-;---:%,;----:=----:-;$,-==:---:-;---:%,;----:=----:-;$",
">--:-;=:-:--=:-#,--=-:-----:---O>--:-;=:-:--=:-#,--=-:-----:---O",
",-;-:---=--;:-=%,---::;--=:=;--%,-;-:---=--;:-=%,---::;--=:=;--%",
",--;---;---:::-X>--:=:-----:---o,--;---;---:::-X>--:=:-----:---o",
">-:=;---=---:--%,-;-::--=-:;-=:%>-:=;---=---:--%,-;-::--=-:;-=:%",
",:=:----=--:=:=O,=-:-----:-;--=O,:=:----=--:=:=O,=-:-----:-;--=O",
"1---------:;:;-O,--:--;=-:-----O1---------:;:;-O,--:--;=-:-----O",
",-=---=--:=::-=#,--------------#,-=---=--:=::-=#,--------------#",
",:=---=-:-=----+,:---=---=---;:O,:=---=-:-=----+,:---=---=---;:O",
"O%%%*&%*O%O%OOO.#%%@%%*%O*X*OOX.O%%%*&%*O%O%OOO.#%%@%%*%O*X*OOX.",
"2332,3,3,,>,,,,o3432,5>4,,1,<,1O2332,3,3,,>,,,,o3432,5>4,,1,<,1O",
"3-:-=-----=---:%3=--:----::----%3-:-=-----=---:%3=--:----::----%",
"3=-==---=:---;-@3:=:--:---:::--%3=-==---=:---;-@3:=:--:---:::--%",
"1-:-=:-=:---:--%,-:::---=--:-=-%1-:-=:-=:---:--%,-:::---=--:-=-%",
"2-;----:;--:--;%4:-:-:---=:--=-&2-;----:;--:--;%4:-:-:---=:--=-&",
",--=--:-:-;----O1-:=-----:==:--O,--=--:-:-;----O1-:=-----:==:--O",
">-:-=:-:::--=--@,=---;-=----:;-%>-:-=:-:::--=--@,=---;-=----:;-%",
",---;-:;=--:-=:#,-------:--:---+,---;-:;=--:-=:#,-------:--:---+",
",--::=-::------%<--=----:-:-:=:%,--::=-::------%<--=----:-:-:=:%",
",:--:----;---:-O,-:--;-:=;-:::=O,:--:----;---:-O,-:--;-:=;-:::=O",
",=-:---;---;---%,-=:--:-:;:=:--%,=-:---;---;---%,-=:--:-:;:=:--%",
",-==:---=--=--:X,----==:-:-:---+,-==:---=--=--:X,----==:-:-:---+",
",----:-:--=:-;-O,-----=---=--=-O,----:-:--=:-;-O,-----=---=--=-O",
",-=-:-:--::-:--#>---;:-:-:--:-;O,-=-:-:--::-:--#>---;:-:-:--:-;O",
",;---=-----;---O,-:=-;--=;-----O,;---=-----;---O,-:=-;--=;-----O",
"O%&%*%%%O%o%OXO O*%%%%&%X%O%OO#.O%&%*%%%O%o%OXO O*%%%%&%X%O%OO#."
};
