/* XPM */
static char *_e7ee97844c74ed2fdcb0f65b19c413fy6OmoNinalcVg4uP[] = {
/* columns rows colors chars-per-pixel */
"64 64 52 1 ",
"  c None",
". c #252525",
"X c gray15",
"o c #272727",
"O c #282828",
"+ c gray16",
"@ c #2A2A2A",
"# c gray17",
"$ c #2B2C2D",
"% c #2C2C2C",
"& c #2D2D2D",
"* c gray18",
"= c #2F2F2F",
"- c gray19",
"; c #313131",
": c #323232",
"> c gray20",
", c #313435",
"< c #373C3D",
"1 c #3C4141",
"2 c #3D4242",
"3 c #3E4445",
"4 c #444C4D",
"5 c #454D4E",
"6 c #4A5455",
"7 c #576465",
"8 c #5D6C6D",
"9 c #637475",
"0 c #697C7D",
"q c #708485",
"w c #768C8D",
"e c #7C9495",
"r c #829C9D",
"t c #89A4A6",
"y c #8AA5A7",
"u c #8BA7A9",
"i c #8DA9AB",
"p c #8EABAD",
"a c #90ACAE",
"s c #91AEB0",
"d c #92AFB2",
"f c #93B0B2",
"g c #94B2B4",
"h c #95B3B5",
"j c #97B5B7",
"k c #99B8BB",
"l c #9AB9BB",
"z c #9BBABC",
"x c #9EBEC0",
"c c #A0C0C1",
"v c #A0C0C2",
"b c #A0C1C2",
/* pixels */
"                        cccccccccccccccc                        ",
"                   ccccccccccccccccccccccccc                    ",
"                 cccccclhhhhhpppppppphhhlxccccc                 ",
"               cccczfittttttttttttttttttttufzcccc               ",
"             ccczstttttttttttttttttttttttttttufxccc             ",
"            cczattttttttttttttttttttttttttttttttfxcc            ",
"          ccxatttttttttttttttttttttttttttttttttttthcc           ",
"         ccxatttttttttttttttttttttttttttttttttttttthcc          ",
"        ccluttttttttttttttttttttttttttttttttttttttttpxcc        ",
"       ccjttttttttttttttttttttttttttttttttttttttttttttzcc       ",
"      ccjttttttttttttttw86333.......3770rttttttttttttttjcc      ",
"      cjtttttttttttte6$..................<9rttttttttttttjc      ",
"     cjtttttttttttr4.....@%%%%%%%%%%%@@....$7rtttttttttttjc     ",
"    czttttttttttt9...@%>>>>>>>>>>>>>>>>>>%...,wtttttttttttzc    ",
"    xutttttttttt6..@>>>>>>>>>>>>>>>>>>>>>>>%@..8ttttttttttux    ",
"   catttttttttt6..>>>>>>>>>>>>>>>>>>>>>>>>>>>%..7ttttttttttac   ",
"   ltttttttttt6.@>>>>>>>>>>>>>>>>>>>>>>>>>>>>>>..9ttttttttttl   ",
"  cuttttttttt8.@>>>>>>>>>>>>>>>>>>>>>>>>>>>>>>>>@.qtttttttttuc  ",
"  jttttttttte.@>>>>>>>>>>>>>>>>>>>>>>>>>>>>>>>>>>.$rtttttttttj  ",
" cuttttttttt3.>>>>>>>>>>>>>>>>>>>>>>>>>>>>>>>>>>>>.3tttttttttuc ",
" ltttttttttq.>>>>>>>>>>>>>>>>>>>>>>>>>>>>>>>>>>>>>>.qtttttttttl ",
" sttttttttt3%>>>>>>>>>>>>>>>>>>>>>>>>>>>>>>>>>>>>>>%4ttttttttts ",
" tttttttttr.>>>>>>>>>>>>>>>>>>>>>>>>>>>>>>>>>>>>>>>>.ettttttttt ",
"lttttttttt9%>>>>>>>>>>>>>>>>>>>>>>>>>>>>>>>>>>>>>>>>%8tttttttttl",
"sttttttttt4>>>>>>>>>>>>>>>>>>>>>>>>>>>>>>>>>>>>>>>>>>6ttttttttts",
"sttttttttt2>>>>>>>>>>>>>>>>>>>>>>>>>>>>>>>>>>>>>>>>>>2ttttttttts",
"pttttttttt%>>>>>>>>>>>>>>>>>>>>>>>>>>>>>>>>>>>>>>>>>>%tttttttttp",
"tttttttttt%>>>>>>>>>>>>>>>>>>>>>>>>>>>>>>>>>>>>>>>>>>%tttttttttt",
"tttttttttt>>>>>>>>>>>>>>>>>>>>>>>>>>>>>>>>>>>>>>>>>>>>tttttttttt",
"tttttttttt>>>>>>>>>>>>>>>>>>>>>>>>>>>>>>>>>>>>>>>>>>>>tttttttttt",
"tttttttttt>>>>>>>>>>>>>>>>>>>>>>>>>>>>>>>>>>>>>>>>>>>>tttttttttt",
"tttttttttt>>>>>>>>>>>>>>>>>>>>>>>>>>>>>>>>>>>>>>>>>>>>tttttttttt",
"tttttttttt>>>>>>>>>>>>>>>>>>>>>>>>>>>>>>>>>>>>>>>>>>>>tttttttttt",
"tttttttttt>>>>>>>>>>>>>>>>>>>>>>>>>>>>>>>>>>>>>>>>>>>>tttttttttt",
"tttttttttt>>>>>>>>>>>>>>>>>>>>>>>>>>>>>>>>>>>>>>>>>>>>tttttttttt",
"tttttttttt>>>>>>>>>>>>>>>>>>>>>>>>>>>>>>>>>>>>>>>>>>>>tttttttttt",
"tttttttttt>>>>>>>>>>>>>>>>>>>>>>>>>>>>>>>>>>>>>>>>>>>>tttttttttt",
"tttttttttt>>>>>>>>>>>>>>>>>>>>>>>>>>>>>>>>>>>>>>>>>>>>tttttttttt",
"tttttttttt>>>>>>>>>>>>>>>>>>>>>>>>>>>>>>>>>>>>>>>>>>>>tttttttttt",
"tttttttttt>>>>>>>>>>>>>>>>>>>>>>>>>>>>>>>>>>>>>>>>>>>>tttttttttt",
"tttttttttt>>>>>>>>>>>>>>>>>>>>>>>>>>>>>>>>>>>>>>>>>>>>tttttttttt",
"tttttttttt>>>>>>>>>>>>>>>>>>>>>>>>>>>>>>>>>>>>>>>>>>>>tttttttttt",
"tttttttttt>>>>>>>>>>>>>>>>>>>>>>>>>>>>>>>>>>>>>>>>>>>>tttttttttt",
"tttttttttt>>>>>>>>>>>>>>>>>>>>>>>>>>>>>>>>>>>>>>>>>>>>tttttttttt",
"tttttttttt>>>>>>>>>>>>>>>>>>>>>>>>>>>>>>>>>>>>>>>>>>>>tttttttttt",
"tttttttttt>>>>>>>>>>>>>>>>>>>>>>>>>>>>>>>>>>>>>>>>>>>>tttttttttt",
"tttttttttt>>>>>>>>>>>>>>>>>>>>>>>>>>>>>>>>>>>>>>>>>>>>tttttttttt",
"tttttttttt>>>>>>>>>>>>>>>>>>>>>>>>>>>>>>>>>>>>>>>>>>>>tttttttttt",
"tttttttttt>>>>>>>>>>>>>>>>>>>>>>>>>>>>>>>>>>>>>>>>>>>>tttttttttt",
"tttttttttt>>>>>>>>>>>>>>>>>>>>>>>>>>>>>>>>>>>>>>>>>>>>tttttttttt",
"tttttttttt>>>>>>>>>>>>>>>>>>>>>>>>>>>>>>>>>>>>>>>>>>>>tttttttttt",
"tttttttttt>>>>>>>>>>>>>>>>>>>>>>>>>>>>>>>>>>>>>>>>>>>>tttttttttt",
"tttttttttt>>>>>>>>>>>>>>>>>>>>>>>>>>>>>>>>>>>>>>>>>>>>tttttttttt",
"tttttttttt>>>>>>>>>>>>>>>>>>>>>>>>>>>>>>>>>>>>>>>>>>>>tttttttttt",
"tttttttttt>>>>>>>>>>>>>>>>>>>>>>>>>>>>>>>>>>>>>>>>>>>>tttttttttt",
"tttttttttt>>>>>>>>>>>>>>>>>>>>>>>>>>>>>>>>>>>>>>>>>>>>tttttttttt",
"tttttttttt>>>>>>>>>>>>>>>>>>>>>>>>>>>>>>>>>>>>>>>>>>>>tttttttttt",
"tttttttttt>>>>>>>>>>>>>>>>>>>>>>>>>>>>>>>>>>>>>>>>>>>>tttttttttt",
"tttttttttt>>>>>>>>>>>>>>>>>>>>>>>>>>>>>>>>>>>>>>>>>>>>tttttttttt",
"tttttttttt>>>>>>>>>>>>>>>>>>>>>>>>>>>>>>>>>>>>>>>>>>>>tttttttttt",
"tttttttttt>>>>>>>>>>>>>>>>>>>>>>>>>>>>>>>>>>>>>>>>>>>>tttttttttt",
"tttttttttt>>>>>>>>>>>>>>>>>>>>>>>>>>>>>>>>>>>>>>>>>>>>tttttttttt",
"tttttttttt>>>>>>>>>>>>>>>>>>>>>>>>>>>>>>>>>>>>>>>>>>>>tttttttttt",
"tttttttttt>>>>>>>>>>>>>>>>>>>>>>>>>>>>>>>>>>>>>>>>>>>>tttttttttt"
};
