/* XPM */
static char *_7e3c435c1af47b99f590a387004e74ePIul10ACItaoychi[] = {
/* columns rows colors chars-per-pixel */
"64 64 83 1 ",
"  c #ECEFF4",
". c black",
"X c gray1",
"o c gray10",
"O c #1E1E1E",
"+ c gray14",
"@ c #252525",
"# c #272727",
"$ c #282828",
"% c gray16",
"& c #2A2A2A",
"* c gray17",
"= c #2C2C2C",
"- c #2D2D2D",
"; c gray18",
": c #2F2F2F",
"> c gray19",
", c #313131",
"< c #353535",
"1 c #4E4E4E",
"2 c #505050",
"3 c #535353",
"4 c #565656",
"5 c gray34",
"6 c #5D5D5D",
"7 c #676767",
"8 c gray43",
"9 c #6F6F6F",
"0 c #717171",
"q c gray47",
"w c gray48",
"e c #7B7B7B",
"r c #8D8D8D",
"t c gray56",
"y c #909090",
"u c gray57",
"i c #929292",
"p c gray58",
"a c #979797",
"s c gray60",
"d c #9A9A9A",
"f c #9B9B9B",
"g c gray61",
"h c #9D9D9D",
"j c gray62",
"k c #A0A0A0",
"l c gray63",
"z c gray64",
"x c #A5A5A5",
"c c gray65",
"v c #A7A7A7",
"b c #A9A9A9",
"n c #AAAAAA",
"m c #B2B2B2",
"M c #B4B4B4",
"N c #BCBCBC",
"B c gray74",
"V c gray",
"C c gray75",
"Z c #C0C0C0",
"A c #C1C1C1",
"S c gray76",
"D c #C3C3C3",
"F c gray77",
"G c #C5C5C5",
"H c gray78",
"J c #C8C8C8",
"K c gray79",
"L c #CACACA",
"P c #CBCBCB",
"I c gray80",
"U c #CDCDCD",
"Y c #CECECE",
"T c gray81",
"R c #D0D0D0",
"E c gray82",
"W c LightGray",
"Q c gray83",
"! c #D5D5D5",
"~ c gray84",
"^ c #D8D8D8",
"/ c gray86",
"( c gray92",
/* pixels */
"                                                                ",
"                                                                ",
"                                                                ",
"                                                                ",
"                                                                ",
"                                                                ",
"                                                                ",
"                                                                ",
"                                                                ",
"                                                                ",
"                                                                ",
"                                                                ",
"                                                                ",
"                                                                ",
"                                                                ",
"                                                                ",
"                      ....            ....                      ",
"                      %::%            %::%                      ",
"                    .%0uu9@.        .@9uu0%.                    ",
"                    .:uIIj2@        @2jIIu:.                    ",
"                    .:aEEBj9@.    .@9jBEEa:.                    ",
"                    .>f!EILj2@    @2jLIE!f>.                    ",
"                    .>f!EIIBj9@..@9jBIIE!f>.                    ",
"                    .:wbSIIILk2%%2kLIIISbw:.                    ",
"                      %4cEIIIBcaacBIIIEc4%                      ",
"                      .:aIIIIIEEEEIIIIIa:.                      ",
"                      .%tLIIIIIIIIIIIILt%.                      ",
"                      .:tGLIIIIIIIIIILGt:.                      ",
"                      .:tGLIIIIIIIIIILGt:.                      ",
"                      .:tGLIIIIIIIIIILGt:.                      ",
"                      .:tGLIIIIIIIIIILGt:.                      ",
"                      .:tGIIIIIIIIIIIIGt:.                      ",
"                      .:uLIIIIIIIIIIIILu:.                      ",
"                      .O7jBLIIIIIIIILBj7O.                      ",
"                      ..o1jGLIIIIIILGj1o..                      ",
"                      <<:2jGLIIIIIILGj2:<<                      ",
"                    .>umkkBLIIIIIIIILBkkmu>.                    ",
"                    @6B(^IIIIIIIIIIIIII^(B6@                    ",
"                  .%wbL^EIIIIIIIIIIIIIIE^Lbw%.                  ",
"                  .>j^EILLLIIIIIIIIIILLLIE^j>.                  ",
"                  .>j^!IGSLIIIEEEEIIILSGI!^j>.                  ",
"                  .:wffkMSLIIScffcSIILSMkffw:.                  ",
"                    :::2fGLIEc4%%4cEILGf2:::                    ",
"                    ...%tLIE!f:..:f!EILt%...                    ",
"                      .%tLE!!j:..:j!!ELt%.                      ",
"                      .%0uaffw:..:wffau0%.                      ",
"                        %::>>:    :>>::%                        ",
"                        ......    ......                        ",
"                                                                ",
"                                                                ",
"                                                                ",
"                                                                ",
"                                                                ",
"                                                                ",
"                                                                ",
"                                                                ",
"                                                                ",
"                                                                ",
"                                                                ",
"                                                                ",
"                                                                ",
"                                                                ",
"                                                                ",
"                                                                "
};
