/* XPM */
static char *_3570d79ce5545269187478a46f7b715FwWL5tKth7e8WKnL[] = {
/* columns rows colors chars-per-pixel */
"64 64 116 2 ",
"   c #ECEFF4",
".  c #000000",
"X  c #1E1E1E",
"o  c #252525",
"O  c #262928",
"+  c #2C2C2C",
"@  c #313231",
"#  c #3A3B3B",
"$  c #545555",
"%  c #585254",
"&  c #5C5C5C",
"*  c gray43",
"=  c gray45",
"-  c #767A79",
";  c #7A7A7A",
":  c #9B4469",
">  c #9F486D",
",  c #975E7B",
"<  c #99617E",
"1  c #DA7393",
"2  c #E37190",
"3  c #E07899",
"4  c #F77CA0",
"5  c #F97DA1",
"6  c #8D8D8D",
"7  c #939393",
"8  c #969897",
"9  c #969998",
"0  c #9B9B9B",
"q  c #AD999E",
"w  c #AF9BA1",
"e  c #B09AA1",
"r  c #A4A5A5",
"t  c #AAABAB",
"y  c #B4B4B4",
"u  c #BABABA",
"i  c #DB95AA",
"p  c #E88BA4",
"a  c #EF8CA9",
"s  c #F288A7",
"d  c #F38CAA",
"f  c #E592A8",
"g  c #F291AD",
"h  c #E59CB1",
"j  c #F89CB5",
"k  c #E8A0B5",
"l  c #EDA4B9",
"z  c #E5ADBD",
"x  c #F0A9BE",
"c  c #BDC0BF",
"v  c #CDBAC4",
"b  c #D4BBC5",
"n  c #DBBBC4",
"m  c #D1BEC8",
"M  c #DEBFC8",
"N  c #FEADC3",
"B  c #F1BBC9",
"V  c #BEC1C0",
"C  c #C3C3C3",
"Z  c #CEC3C9",
"A  c #CECECE",
"S  c #D7C0C7",
"D  c #D4C3CC",
"F  c #DCC4CC",
"G  c #D3CDCF",
"H  c #CDD0CF",
"J  c #CFD1D0",
"K  c #D3D4D3",
"L  c #DBD3D5",
"P  c #DDD6D8",
"I  c #D7DAD9",
"U  c #DBDCDB",
"Y  c #E0C0C9",
"T  c #E0C9CF",
"R  c #EDC7D1",
"E  c #E6CDD4",
"W  c #EACAD3",
"Q  c #EED9DF",
"!  c #F3D1DB",
"~  c #F7D5E0",
"^  c #F5DEE4",
"/  c #DCE1E0",
"(  c #E3E3E3",
")  c #E9E3E5",
"_  c #E7EBEA",
"`  c #ECECEC",
"'  c #ECEEEE",
"]  c #ECEFEE",
"[  c #EEEFEF",
"{  c #EFEFEF",
"}  c #EAEAEA",
"|  c #FBE3E9",
" . c #FEE3EA",
".. c #EEF0EF",
"X. c #F6EFF1",
"o. c #FFEAF1",
"O. c #EFF0F0",
"+. c gray94",
"@. c #F1F1F1",
"#. c #F1F3F2",
"$. c gray95",
"%. c #F2F3F3",
"&. c #F3F3F3",
"*. c #F1F4F3",
"=. c #F1F5F4",
"-. c #F4F4F4",
";. c gray96",
":. c #F6F6F6",
">. c #F3F3F3",
",. c #F1FAF7",
"<. c #F5F8F6",
"1. c #F4FBF8",
"2. c gray98",
"3. c #FFF8FA",
"4. c white",
"5. c #FEFEFE",
/* pixels */
"                                                                                                                                ",
"                                                                                                                                ",
"                                                                                                                                ",
"                                                                                                                                ",
"                                                                                                                                ",
"                                                                                                                                ",
"                                                                                                                                ",
"                                                                                                                                ",
"                                                                                                                                ",
"                                                                                                                                ",
"                                                                                                                                ",
"                                                                                                                                ",
"                                                                                                                                ",
"                                                                                                                                ",
"                                                                                                                                ",
"                                                                                                                                ",
"                                            . . . .                         . . . .                                             ",
"                                            + @ @ +                         + @ @ +                                             ",
"                                        . + ; 0 0 ; O .                 . O ; 0 0 ; + .                                         ",
"                                        . @ 0 L T e % O                 O % e T L 0 @ .                                         ",
"                                        . @ 0 F l i e - O .         . O - e i l F 0 @ .                                         ",
"                                        . @ 0 M d d z w % O         O % w z d d M 0 @ .                                         ",
"                                        . @ 0 Y g 5 d i e ; O . . O ; e i d 5 g Y 0 @ .                                         ",
"                                        . + ; e i s 5 g M t $ O O $ t M d 4 s i e ; + .                                         ",
"                                            O % q z d d n C r 8 8 r C n a s z q % O                                             ",
"                                            . + 9 S k h b J I U I I I F x x F 9 + .                                             ",
"                                            . + 9 G S b Z K ( [ [ } } ) ^ Q L 8 + .                                             ",
"                                            . @ 8 K J H K G v D ) #.#.) D Z K 0 @ .                                             ",
"                                            . @ 8 K A K ( v , < D <.<.D < < m t # .                                             ",
"                                            . @ 8 K A I [ b : : b 1.1.b : > F u # .                                             ",
"                                            . @ 8 K A I *.! 1 1 W ,.,.W 1 3 ~ c # .                                             ",
"                                            . @ 8 K A I #. .N j B W W B j N o.V # .                                             ",
"                                            . @ 8 I A I ` X.^ B p 2 2 p B | 3.u # .                                             ",
"                                            . + ; r C I ( _ _ E f 2 2 f E / C 6 @ .                                             ",
"                                                O $ r K I K K L E R R E P t & +                                                 ",
"                                                o $ r K K K K U ` =.=.[ U t & O                                                 ",
"                                            . O = r C I ( ( ( } ..#.#.O.} U C 6 + .                                             ",
"                                            @ & y I K I } #.#.#.#.#.#.#.#.:.2.C & O                                             ",
"                                        . @ 6 C U ( K K } #.#.{ #.#.#.#.{ #.:.U t * O .                                         ",
"                                        . # u 4.2.} I K Q } #.#.:.#.#.#.#.[ } ( K 7 + .                                         ",
"                                        . # u 4.2.[ I A K U [ :.:.-.#.#.#.} U K A 7 + .                                         ",
"                                        . @ 7 u y u C A A C u y y C I } } ( K u r = O .                                         ",
"                                            @ @ @ & t K K t & @ @ & t I I I K r $ O                                             ",
"                                            . . X $ t I I 8 + . . + 8 K K K I 8 + .                                             ",
"                                            . o = t C I I 0 + . . + 0 I K I I 8 + .                                             ",
"                                            . + ; 0 8 8 8 ; + . . + ; 8 8 8 8 ; + .                                             ",
"                                                @ @ @ @ @ +         + @ @ @ @ +                                                 ",
"                                                . . . . . .         . . . . . .                                                 ",
"                                                                                                                                ",
"                                                                                                                                ",
"                                                                                                                                ",
"                                                                                                                                ",
"                                                                                                                                ",
"                                                                                                                                ",
"                                                                                                                                ",
"                                                                                                                                ",
"                                                                                                                                ",
"                                                                                                                                ",
"                                                                                                                                ",
"                                                                                                                                ",
"                                                                                                                                ",
"                                                                                                                                ",
"                                                                                                                                ",
"                                                                                                                                "
};
