/* XPM */
static char *_fe4b280a5194adccfa86e296062e633VhUVRs19w4Iasu3L[] = {
/* columns rows colors chars-per-pixel */
"64 64 207 2 ",
"   c #ECEFF4",
".  c black",
"X  c #040404",
"o  c gray11",
"O  c #202020",
"+  c #272727",
"@  c #272828",
"#  c #262928",
"$  c #282928",
"%  c #282929",
"&  c #292A29",
"*  c #2A2A2A",
"=  c #2B2D2C",
"-  c #2C2C2C",
";  c #2D2D2D",
":  c #2C2E2D",
">  c #2D2E2E",
",  c gray18",
"<  c #2F2F2F",
"1  c gray19",
"2  c #303131",
"3  c #313131",
"4  c #303231",
"5  c gray20",
"6  c #343434",
"7  c gray21",
"8  c #373737",
"9  c #393939",
"0  c #555555",
"q  c #555756",
"w  c #565656",
"e  c #585254",
"r  c #585354",
"t  c #5D5D5D",
"y  c gray37",
"u  c #5F5F5F",
"i  c #6F6F6F",
"p  c #767A79",
"a  c #797979",
"s  c #787A79",
"d  c #797B7B",
"f  c gray48",
"g  c #7B7B7B",
"h  c #9B4469",
"j  c #9C456A",
"k  c #965E7B",
"l  c #99607E",
"z  c #D97292",
"x  c #DD7596",
"c  c #E37090",
"v  c #E37190",
"b  c #F87CA0",
"n  c #F97DA1",
"m  c #8E8E8E",
"M  c gray56",
"N  c gray59",
"B  c #979797",
"V  c #979998",
"C  c #969A99",
"Z  c #989898",
"A  c #9A9A9A",
"S  c #9B9B9B",
"D  c #999C9B",
"F  c #9B9C9B",
"G  c #9A9D9C",
"H  c gray61",
"J  c #9D9D9D",
"K  c #9C9E9E",
"L  c #AD999E",
"P  c #AF9BA1",
"I  c #B09AA0",
"U  c #B09AA1",
"Y  c #B19BA1",
"T  c #A4A6A5",
"R  c #A9A9A9",
"E  c #A8ABAA",
"W  c gray67",
"Q  c #ACACAC",
"!  c #AEAEAE",
"~  c gray69",
"^  c #B1B1B1",
"/  c #B4B4B4",
"(  c #B7B7B7",
")  c #B9B9B9",
"_  c #BBBBBB",
"`  c #DA94A9",
"'  c #DC95AA",
"]  c #DC96AB",
"[  c #E88BA4",
"{  c #F288A7",
"}  c #F488A8",
"|  c #F58AA9",
" . c #F48BAA",
".. c #F08DAA",
"X. c #F28FAC",
"o. c #E491A8",
"O. c #F290AC",
"+. c #F291AD",
"@. c #E89FB4",
"#. c #E89FB5",
"$. c #F89CB5",
"%. c #EDA4B9",
"&. c #E3ABBC",
"*. c #E7AFBF",
"=. c #CBBAC3",
"-. c #CDBCC5",
";. c #D4B9C5",
":. c #D7BBC7",
">. c #D6BFC6",
",. c #DABAC3",
"<. c #DEBEC8",
"1. c #DEBFC8",
"2. c #FDABC1",
"3. c #F0B9C8",
"4. c #F1BCCA",
"5. c #C0C3C2",
"6. c gray76",
"7. c gray77",
"8. c gray78",
"9. c #CBCBCB",
"0. c gray80",
"q. c #CDCDCD",
"w. c #CECECE",
"e. c gray81",
"r. c #D4C1CB",
"t. c #D5C3CC",
"y. c #D8C3C9",
"u. c #DBC4CB",
"i. c #DDC5CC",
"p. c #DCC6CC",
"a. c #D2CCCE",
"s. c #D1CDD0",
"d. c #D0D0D0",
"f. c gray82",
"g. c #D2D2D2",
"h. c LightGray",
"j. c #D3D4D3",
"k. c gray83",
"l. c #D5D5D5",
"z. c #D4D7D6",
"x. c gray84",
"c. c #D7D7D7",
"v. c #DAD2D4",
"b. c #DBD3D5",
"n. c #D6D8D7",
"m. c #D7D8D8",
"M. c #D7DAD9",
"N. c #D8D8D8",
"B. c #D8DAD9",
"V. c #D9DADA",
"C. c #DADADA",
"Z. c gray86",
"A. c #DBDCDB",
"S. c gainsboro",
"D. c #DCDEDD",
"F. c #DDDFDE",
"G. c #DEDFDF",
"H. c #DFDFDF",
"J. c #E0C0C9",
"K. c #E0C9CF",
"L. c #EDC7D1",
"P. c #E6CBD2",
"I. c #E6CED4",
"U. c #E9C9D3",
"Y. c #EBCAD3",
"T. c #F3D1DB",
"R. c #F6DEE4",
"E. c #DFE0E0",
"W. c gray88",
"Q. c #E2E2E2",
"!. c #E6E0E1",
"~. c gray90",
"^. c #E4E7E6",
"/. c #E8E2E5",
"(. c gray91",
"). c #E9E9E9",
"_. c #E9EAE9",
"`. c #E8EBEA",
"'. c #EAEAEA",
"]. c #E9ECEB",
"[. c #E8EDEB",
"{. c #EBECEB",
"}. c #EBEEEC",
"|. c #ECECEC",
" X c #EFEFEF",
".X c #FDE3EA",
"XX c #EEF0EF",
"oX c #F6EFF1",
"OX c #EFF0F0",
"+X c #EFF2F1",
"@X c gray94",
"#X c #F1F1F1",
"$X c #F1F3F2",
"%X c gray95",
"&X c #F2F3F3",
"*X c #F3F3F3",
"=X c #F1F5F4",
"-X c #F4F4F4",
";X c gray96",
":X c #F4F7F6",
">X c #F6F6F6",
",X c #F1FAF7",
"<X c #F5F8F6",
"1X c #F4FBF8",
"2X c gray98",
"3X c gray99",
"4X c white",
/* pixels */
"                                                                                                                                ",
"                                                                                                                                ",
"                                                                                                                                ",
"                                                                                                                                ",
"                                                                                                                                ",
"                                                                                                                                ",
"                                                                                                                                ",
"                                                                                                                                ",
"                                                                                                                                ",
"                                                                                                                                ",
"                                                                                                                                ",
"                                                                                                                                ",
"                                                                                                                                ",
"                                                                                                                                ",
"                                                                                                                                ",
"                                                                                                                                ",
"                                            . . . .                         . . . .                                             ",
"                                            ; 2 2 =                         = 2 2 ;                                             ",
"                                        . ; d J J d $ .                 . $ d J J d ; .                                         ",
"                                        . 2 D b.K.Y e #                 # e Y K.b.D 2 .                                         ",
"                                        . 2 D i.%.] Y p # .         . # p Y ] %.i.D 2 .                                         ",
"                                        . 2 D <.X. .*.P e #         # e P *. .X.<.D 2 .                                         ",
"                                        . 2 G J.O.b  .] Y d $ . . $ d Y ]  .b O.J.G 2 .                                         ",
"                                        . = d Y ` { b O.<.E q $ $ q E <.O.b { ` Y d = .                                         ",
"                                            $ e L &. ...,.5.T N N T 5.,... .&.L e $                                             ",
"                                            . ; C y.@.@.i.M.C.C.C.C.M.i.@.@.y.C ; .                                             ",
"                                            . ; C a.>.u.!.}.{.'.'.{.}.!.u.>.a.C ; .                                             ",
"                                            . 2 Z j.z.s.-.t./.&X&X/.t.-.s.z.j.Z 2 .                                             ",
"                                            . 2 Z C.^.=.k l r.<X<Xr.l k =.^.C.Z 2 .                                             ",
"                                            . 2 Z D.+X;.j h ;.1X1X;.h j ;.+XD.Z 2 .                                             ",
"                                            . ; N D.:XT.x z U.,X,XU.z x T.:XD.N ; .                                             ",
"                                            . 2 Z E.:X.X2.$.3.U.U.3.$.2..X:XE.Z 2 .                                             ",
"                                            . 2 Z D.+XoXR.4.[ c c [ 4.R.oX+XD.Z 2 .                                             ",
"                                            . O i ! z.'.{.I.o.c c o.I.{.'.z.! i O .                                             ",
"                                            . X o q ! M.n.b.P.L.L.P.b.n.M.! q o X .                                             ",
"                                            ; ; $ q E z.z.A.{.=X=X{.A.z.z.E q $ ; ;                                             ",
"                                        . + d Z Z E z.'.'.'.|.&X&XXX'.(.(.h.E Z Z d + .                                         ",
"                                        2 u ~ C.z.C.'.&X&X&X@X@X&X&X&X&X&X'.C.z.C.~ u 2                                         ",
"                                    . 2 M 8.D.^.z.z.'.&X&X&XoXoX&X&X&X&X&X'.z.z.^.D.8.M 2 .                                     ",
"                                    . 9 ) 4X2X'.z.h.Q.'.|.&X&X:X:X&X&X|.'.W.h.z.'.2X4X) 9 .                                     ",
"                                    . 9 ) 4X4X|.z.w.h.D.'.&X:X:X:X:X&X'.D.h.w.z.|.4X4X) 9 .                                     ",
"                                    . 6 M / / ) 8.w.9.h.Q.D.5./ / 5.D.Q.h.9.w.8.) / / M 6 .                                     ",
"                                        6 6 6 u E w.w.h.z.~ u 6 6 u ~ z.h.w.w.E u 6 6 6                                         ",
"                                        . . . ; Z z.h.h.h.Z ; . . ; Z h.h.h.z.Z ; . . .                                         ",
"                                            . ; Z z.z.z.z.J ; . . ; J z.z.z.z.Z ; .                                             ",
"                                            . ; d Z Z Z Z d ; . . ; d Z Z Z Z d ; .                                             ",
"                                                ; 2 2 2 2 ;         ; 2 2 2 2 ;                                                 ",
"                                                . . . . . .         . . . . . .                                                 ",
"                                                                                                                                ",
"                                                                                                                                ",
"                                                                                                                                ",
"                                                                                                                                ",
"                                                                                                                                ",
"                                                                                                                                ",
"                                                                                                                                ",
"                                                                                                                                ",
"                                                                                                                                ",
"                                                                                                                                ",
"                                                                                                                                ",
"                                                                                                                                ",
"                                                                                                                                ",
"                                                                                                                                ",
"                                                                                                                                ",
"                                                                                                                                "
};
