/* XPM */
static char *a8cc3aee37d640f5f6b161959a990feexisiPOOBlQ3CMmRR[] = {
/* columns rows colors chars-per-pixel */
"64 64 22 1 ",
"  c None",
". c #6C8183",
"X c #6D8385",
"o c #6F8587",
"O c #73898B",
"+ c #758B8D",
"@ c #839D9F",
"# c #87A1A3",
"$ c #89A3A5",
"% c #88A4A5",
"& c #89A4A5",
"* c #88A4A6",
"= c #89A4A6",
"- c #8AA5A7",
"; c #8DA9AB",
": c #8EABAD",
"> c #91AEB0",
", c #94B2B4",
"< c #9EBEC0",
"1 c #A0C0C1",
"2 c #A0C0C2",
"3 c #A0C1C2",
/* pixels */
"  111111111111111111111111111111111111111111111111111111111111  ",
" 11111111111111111111111111111111111111111111111111111111111111 ",
"1<,::======================================================::,<1",
"<;============================================================;<",
">==============================================================>",
"================================================================",
"================================================================",
"========@OOO+@====================================@OOO+@========",
"=======#o....o#==================================#o....o#=======",
"=======+......+==================================+......+=======",
"=======........==================================........=======",
"=======........==================================........=======",
"=======O......O==================================O......O=======",
"=======@X....X@==================================@X....X@=======",
"========#O..O#====================================#O..O#========",
"================================================================",
"================================================================",
"================================================================",
"================================================================",
"================================================================",
"================================================================",
"================================================================",
"================================================================",
"================================================================",
"================================================================",
"================================================================",
"================================================================",
"================================================================",
"================================================================",
"================================================================",
"================================================================",
"================================================================",
"================================================================",
"================================================================",
"================================================================",
"================================================================",
"================================================================",
"================================================================",
"================================================================",
"================================================================",
"================================================================",
"================================================================",
"================================================================",
"================================================================",
"================================================================",
"================================================================",
"================================================================",
"================================================================",
"================================================================",
"========@OOO+@====================================@OOO+@========",
"=======#o....o#==================================#o....o#=======",
"=======+......+==================================+......+=======",
"=======........==================================........=======",
"=======........==================================........=======",
"=======O......O==================================O......O=======",
"=======@X....X@==================================@X....X@=======",
"========#O..O#====================================#O..O#========",
"================================================================",
"================================================================",
"================================================================",
"================================================================",
"================================================================",
" $============================================================$ ",
"  ============================================================  "
};
